<svg id="图层_0_拷贝_图像" data-name="图层 0 拷贝 图像" xmlns="http://www.w3.org/2000/svg" viewBox="0 0 291.05 92.38"><defs><style>.cls-1{fill:#000fff;}.cls-1,.cls-2{opacity:0.5;}.cls-2{fill:#040000;}.cls-3{fill:#c00;}</style></defs><title>logo</title><path class="cls-1" d="M539.29,530.42c-3.7-1.56-7.92-5.61-8.37-8.16-0.45-10.53,3.78-34,0-37.72-10-7.09-25.8,7.65-31.72,2.85,0.25-3.12,14.16-13,24.54-16.92,14.15-5.39,26.83-2.62,38.34-6.06,15.89-4.79,17.84-18.12,31.65-15.5,3.77,5.65-15.3,16.06-20,29.41-9.08,19.1,4.17,34.56-8.59,51.76-11.09,4.08,6.35-24.26-15.16-23.79C534.52,508.53,545,524.65,539.29,530.42Z" transform="translate(-499.2 -438.1)"/><path class="cls-2" d="M558.8,453.23c-3.31,2.6-6.83,4.94-7,7.68-2.79-2.81-6-5.2-10.14-6.1-4.34-.95-7.72-2.25-9.35-4.86-0.58-1.86-1.86-6.9,5.13-9.4,7.85-2.65,11.64,3.3,11.64,3.3s5.5-7.48,12.32-5.38C575.25,445.23,558.8,453.23,558.8,453.23Z" transform="translate(-499.2 -438.1)"/><path class="cls-3" d="M638.91,459.18v1.31H623.72v16.88h17.63v1.69H624.28l15,25.5h2.06v1.5H628.41l-10.5-15.94L607.6,506.06H594.47v-1.5h2.06l15-25.5H594.47v-1.69H612.1V460.5H596.91v-1.31h42Z" transform="translate(-499.2 -438.1)"/><path class="cls-3" d="M657.85,471.93H646.6l-4.12-10.5h11.25Zm0,13.13H646.6l-4.12-10.5h11.25Zm-15.37,20.81h11.25l4.13-17.44H646.6Zm23.25-8.44h7.88v-1.31H668v-7.5h5.63v-1.31h-7.12a69.08,69.08,0,0,1-.75,7.31,43.19,43.19,0,0,1-3.56,11.63l-5.81-5.81a24.13,24.13,0,0,0,2.81-10.5q0.37-3.94.38-6.19v-22.5h29.81v8.06h-8.06v1.88h6.38v7.13h-6.37v1.31h7.31v7.69h-7.31v1.31h6.56v7.5h-6.56v1.31h7.88v8.44H665.72v-8.44Zm0.75-17.81h7.13v-1.31H668v-7.12h5.63v-1.87h-7.12v10.31Z" transform="translate(-499.2 -438.1)"/><path class="cls-3" d="M690.47,486.56h30.19v-4.5h11.81v4.5h4.88v1.88h-4.87v13.31a4.19,4.19,0,0,1-.37,1.88,4.44,4.44,0,0,1-.94,1.5,6,6,0,0,1-1.5,1.13,5,5,0,0,1-1.87.38H714.85v-1.87h3.94a1.46,1.46,0,0,0,1.31-.56,1.8,1.8,0,0,0,.56-1.31V488.43H690.47v-1.87Zm1.88-17.44h32.06v-7.69H692.35v-1.69H736v16.13a5.48,5.48,0,0,1-1.12,3.38,3.75,3.75,0,0,1-3,1.31H692.35v-1.5h30.19a1.92,1.92,0,0,0,1.88-1.87V471H692.35v-1.87Z" transform="translate(-499.2 -438.1)"/><path class="cls-3" d="M738.47,476.62l7.31,0.19-2.25-7.87h10.88l2.06,7.69h10.88l2.06-7.69h10.88L778,476.62h7.31v2.44H767.72V486h16.69v2.63H767.72v12.75a5,5,0,0,1-.37,1.88,10.16,10.16,0,0,1-.94,1.5,4.44,4.44,0,0,1-1.5.94,5,5,0,0,1-1.87.38H752.16v-3.75h2.44a1.28,1.28,0,0,0,.94-0.37l0.56-13.31H739.41V486H756.1v-6.94H738.47v-2.44Zm0.38,28.69L741.47,492h10.69l-2.62,13.31H738.85Zm0.38-42.19H756.1v-3.94h11.63v3.94H784.6v2.25H739.22v-2.25Zm35.06,42.19L771.66,492h10.69L785,505.31H774.28Z" transform="translate(-499.2 -438.1)"/><path class="cls-3" d="M598.3,524.66h-0.75V520.3h-4.31a9,9,0,0,1-1.59,4.58,6.81,6.81,0,0,0-.7-0.51,8.16,8.16,0,0,0,1.33-2.85,18.36,18.36,0,0,0,.32-4.18v-4.86h10.83V523a1.5,1.5,0,0,1-1.72,1.71l-0.76,0h-0.87a6.36,6.36,0,0,0-.14-0.81c0.5,0,1,0,1.63,0a0.89,0.89,0,0,0,1.1-1V520.3H598.3v4.37Zm-5-7.29q0,1-.05,2.26h4.26v-2.88h-4.2v0.63Zm0-4.18v2.88h4.2v-2.88h-4.2Zm9.32,0H598.3v2.88h4.37v-2.88Zm-4.37,3.55v2.88h4.37v-2.88H598.3Z" transform="translate(-499.2 -438.1)"/><path class="cls-3" d="M606.45,515.82l0.79,0.21q-0.62,2.71-1.42,5.36a8,8,0,0,0-.81-0.28A38.25,38.25,0,0,0,606.45,515.82Zm2.07-1.51h0.79v7.94a1.44,1.44,0,0,0,.3,1.07,1.48,1.48,0,0,0,1.09.3h2.66a1.4,1.4,0,0,0,1.68-1.21q0.12-.7.24-1.89,0.49,0.18.81,0.27-0.15,1.22-.32,2-0.29,1.61-2.27,1.57h-3a1.71,1.71,0,0,1-2-2v-8.09Zm4.29,1.47q-1-1.89-2.23-3.79l0.7-.37q1.11,1.71,2.28,3.74Zm4.66,4.81q-1-2.4-2.24-4.84l0.75-.32q1.26,2.53,2.31,4.79Z" transform="translate(-499.2 -438.1)"/><path class="cls-3" d="M619.69,519.06v-0.67h4v0.67h-4Z" transform="translate(-499.2 -438.1)"/><path class="cls-3" d="M627.71,522.58q1.23-.94,2.25-1.78a8,8,0,0,0,.25.8q-1.11.78-2.45,1.85a4.84,4.84,0,0,0-.66.66l-0.66-.64a1.72,1.72,0,0,0,.38-0.57,2,2,0,0,0,.11-0.72v-5.06H625v-0.71h2.69v6.17Zm0.83-7.71a28.88,28.88,0,0,0-2.19-2.21l0.59-.51q1.2,1.11,2.24,2.16Zm4.4-3h0.78v4h3.85v0.75h-3.85v6.66h4.53V524h-8.8v-0.76h3.5V511.85Z" transform="translate(-499.2 -438.1)"/><path class="cls-3" d="M651.78,524.68a21.31,21.31,0,0,1-5.37-1.37,23.59,23.59,0,0,1-5.45,1.57,5.61,5.61,0,0,0-.39-0.7,23,23,0,0,0,5-1.25,10.43,10.43,0,0,1-3-2.31,13.27,13.27,0,0,1-3.12,3.56,5.7,5.7,0,0,0-.46-0.65,11.74,11.74,0,0,0,3.91-5.17h-3.63v-0.68h3.9q0.1-.28.28-0.87l0.14-.45,0.77,0.12q-0.19.64-.41,1.2h8.2v0.68h-8.46a12.08,12.08,0,0,1-.62,1.35h7.41v0.76a13.22,13.22,0,0,1-3.19,2.43,20.75,20.75,0,0,0,4.85,1.05A7.47,7.47,0,0,0,651.78,524.68Zm-12.12-9.41h8.59q0.85-1.13,1.48-2.08l0.67,0.35-0.18.23q-0.7.93-1.16,1.5h2.66V517H651v-1.09H640.38V517h-0.72v-1.75Zm11.94-2.54q-5.28.25-11.6,0.4c0-.21-0.08-0.44-0.14-0.7q6.15,0,11.55-.38Zm-10.3.94,0.59-.33q0.44,0.59,1,1.44l-0.64.36Q641.75,514.33,641.29,513.68Zm8.27,6.69h-6.3a11.13,11.13,0,0,0,3.17,2.19A11.74,11.74,0,0,0,649.56,520.36Zm-4.48-6.87,0.62-.28q0.48,0.76.91,1.57l-0.66.31Q645.56,514.29,645.08,513.49Z" transform="translate(-499.2 -438.1)"/><path class="cls-3" d="M653.83,512.47h11.61v12.3h-0.73v-0.9H654.56v0.9h-0.73v-12.3Zm0.73,0.68v10h10.14v-10H654.56Zm2.34,2.46h5.46v5H656.9v-5Zm0.71,0.66v3.66h4v-3.66h-4Z" transform="translate(-499.2 -438.1)"/><path class="cls-3" d="M667.72,522a5.27,5.27,0,0,0-.44-0.7,13.49,13.49,0,0,0,5.49-2.88l-0.12-.17a6.76,6.76,0,0,0-.46-0.6,18.68,18.68,0,0,1-4.63,2.06,5.49,5.49,0,0,0-.4-0.7,15,15,0,0,0,5.77-2.7h-4v-0.65h9.47v0.65H674a14.08,14.08,0,0,1-1.2,1,8.25,8.25,0,0,1,1.33,2,44.28,44.28,0,0,0,4.18-2.11l0.42,0.62q-1.18.63-2.62,1.32a6.23,6.23,0,0,0,4,4,6.76,6.76,0,0,0-.48.68,7.15,7.15,0,0,1-4.14-4.4l-0.65.3-0.47.22a6.21,6.21,0,0,1,.41,2.19q0.07,2.63-2,2.59l-1.67,0a5.87,5.87,0,0,0-.21-0.79q1.05,0,1.69,0a1.27,1.27,0,0,0,1.1-.4,2.36,2.36,0,0,0,.31-1.45,6.08,6.08,0,0,0-.15-1.33,15.11,15.11,0,0,1-6.25,3.7,5.67,5.67,0,0,0-.42-0.7,13.81,13.81,0,0,0,6.44-3.74,5.7,5.7,0,0,0-.48-1A14.83,14.83,0,0,1,667.72,522ZM673,511.81l0.7-.25q0.4,0.77.76,1.64l-0.62.24h5.91v2H679V514.1H668.22v1.36H667.5v-2h6.21Q673.32,512.48,673,511.81Z" transform="translate(-499.2 -438.1)"/><path class="cls-3" d="M684.83,523.05a2.34,2.34,0,0,1-1,.25q-1.67,0-1.67-2v-5.08H680.8v-0.62h1.36v-2l0.33-.12,0.34-.12v2.19h2v0.62h-2v5a2,2,0,0,0,.25,1.13,1,1,0,0,0,.84.35,1.89,1.89,0,0,0,.91-0.27v0.64Z" transform="translate(-499.2 -438.1)"/><path class="cls-3" d="M686.67,513.68a0.56,0.56,0,0,1-.56-0.57,0.51,0.51,0,0,1,.17-0.39,0.57,0.57,0,0,1,.39-0.15,0.6,0.6,0,0,1,.4.15,0.49,0.49,0,0,1,.17.4A0.58,0.58,0,0,1,686.67,513.68Zm-0.33,9.47v-7.56H687v7.56h-0.68Z" transform="translate(-499.2 -438.1)"/><path class="cls-3" d="M694,523.15v-1.51h0a3,3,0,0,1-1.05,1.23,2.69,2.69,0,0,1-1.53.46,2.37,2.37,0,0,1-1.71-.6,2,2,0,0,1-.63-1.53q0-2,2.63-2.39l2.32-.35q0-2.43-1.83-2.43a3.73,3.73,0,0,0-2.43,1v-0.82a3.61,3.61,0,0,1,1.14-.57,4.4,4.4,0,0,1,1.36-.24,2.27,2.27,0,0,1,1.8.72,3.1,3.1,0,0,1,.64,2.11v4.92H694Zm-2.08-3.77a3.65,3.65,0,0,0-1.67.55,1.71,1.71,0,0,0,0,2.35,1.72,1.72,0,0,0,1.25.43,2.33,2.33,0,0,0,1.81-.81,3,3,0,0,0,.72-2.08v-0.74Z" transform="translate(-499.2 -438.1)"/><path class="cls-3" d="M702,523.15v-4.4q0-2.72-2-2.72a2.29,2.29,0,0,0-1.8.8,2.89,2.89,0,0,0-.7,2v4.34h-0.68v-7.56h0.68V517h0a2.74,2.74,0,0,1,2.58-1.56,2.25,2.25,0,0,1,1.87.82,3.66,3.66,0,0,1,.65,2.33v4.6H702Z" transform="translate(-499.2 -438.1)"/><path class="cls-3" d="M706.85,524.7a4.41,4.41,0,0,1-.91,1.51,1.77,1.77,0,0,1-1.29.49,1.59,1.59,0,0,1-.59-0.1v-0.68a1.73,1.73,0,0,0,.62.1,1.64,1.64,0,0,0,1.43-1.25l0.7-1.68-2.86-7.5h0.76l2.28,6.16,0.1,0.3a2.24,2.24,0,0,0,.06.25h0l0.18-.51,2.43-6.2h0.74Z" transform="translate(-499.2 -438.1)"/><path class="cls-3" d="M716.37,523.15v-1.51h0a3,3,0,0,1-1.05,1.23,2.69,2.69,0,0,1-1.53.46,2.37,2.37,0,0,1-1.71-.6,2,2,0,0,1-.63-1.53q0-2,2.63-2.39l2.32-.35q0-2.43-1.83-2.43a3.73,3.73,0,0,0-2.43,1v-0.82a3.62,3.62,0,0,1,1.14-.57,4.41,4.41,0,0,1,1.36-.24,2.27,2.27,0,0,1,1.8.72,3.1,3.1,0,0,1,.64,2.11v4.92h-0.68Zm-2.08-3.77a3.66,3.66,0,0,0-1.67.55,1.49,1.49,0,0,0-.48,1.24,1.47,1.47,0,0,0,.45,1.1,1.72,1.72,0,0,0,1.25.43,2.33,2.33,0,0,0,1.81-.81,3,3,0,0,0,.72-2.08v-0.74Z" transform="translate(-499.2 -438.1)"/><path class="cls-3" d="M721.66,519.45l2.47,3.71h-0.86l-2-3.19h0l-0.27.42-0.12.2-1.67,2.57h-0.83l2.52-3.69-2.48-3.87h0.8l1.68,2.71q0.33,0.53.39,0.65h0l0.38-.62,1.76-2.74h0.79Z" transform="translate(-499.2 -438.1)"/><path class="cls-3" d="M730.68,523.15v-1.37h0a2.59,2.59,0,0,1-2.44,1.56q-2.68,0-2.68-3.38v-4.37h0.69v4.2a3.84,3.84,0,0,0,.51,2.23,1.84,1.84,0,0,0,1.59.69,2.12,2.12,0,0,0,1.71-.78,3.11,3.11,0,0,0,.65-2.07v-4.28h0.68v7.56h-0.68Z" transform="translate(-499.2 -438.1)"/><path class="cls-3" d="M738.92,523.15v-4.4q0-2.72-2-2.72a2.29,2.29,0,0,0-1.8.8,2.89,2.89,0,0,0-.7,2v4.34h-0.68v-7.56h0.68V517h0a2.74,2.74,0,0,1,2.58-1.56,2.25,2.25,0,0,1,1.87.82,3.66,3.66,0,0,1,.65,2.33v4.6h-0.68Z" transform="translate(-499.2 -438.1)"/><path class="cls-3" d="M747.24,526.63v-4.87h0a2.88,2.88,0,0,1-2.74,1.57,2.82,2.82,0,0,1-2.28-1,4.26,4.26,0,0,1-.86-2.81,4.31,4.31,0,0,1,1-3,3.2,3.2,0,0,1,2.5-1.1,2.49,2.49,0,0,1,2.41,1.41h0v-1.22h0.68v11h-0.68Zm0-8a2.68,2.68,0,0,0-.66-1.86,2.33,2.33,0,0,0-1.83-.73,2.46,2.46,0,0,0-1.94.9,4.49,4.49,0,0,0-.09,4.92,2.18,2.18,0,0,0,1.79.87,2.52,2.52,0,0,0,2-.81,2.92,2.92,0,0,0,.7-2v-1.3Z" transform="translate(-499.2 -438.1)"/><path class="cls-3" d="M750.68,513.68a0.56,0.56,0,0,1-.56-0.57,0.51,0.51,0,0,1,.17-0.39,0.57,0.57,0,0,1,.39-0.15,0.6,0.6,0,0,1,.4.15,0.49,0.49,0,0,1,.17.4A0.58,0.58,0,0,1,750.68,513.68Zm-0.33,9.47v-7.56H751v7.56h-0.68Z" transform="translate(-499.2 -438.1)"/><path class="cls-3" d="M758.59,523.15v-4.4q0-2.72-2-2.72a2.29,2.29,0,0,0-1.8.8,2.9,2.9,0,0,0-.7,2v4.34h-0.68v-7.56h0.68V517h0a2.73,2.73,0,0,1,2.58-1.56,2.25,2.25,0,0,1,1.87.82,3.66,3.66,0,0,1,.65,2.33v4.6h-0.68Z" transform="translate(-499.2 -438.1)"/><path class="cls-3" d="M762,523.28a0.56,0.56,0,0,1-.42-0.17,0.58,0.58,0,0,1-.17-0.42,0.57,0.57,0,0,1,.17-0.42,0.58,0.58,0,0,1,.42-0.16,0.61,0.61,0,0,1,.43.16,0.55,0.55,0,0,1,.18.42,0.57,0.57,0,0,1-.18.42A0.6,0.6,0,0,1,762,523.28Z" transform="translate(-499.2 -438.1)"/><path class="cls-3" d="M769.79,522.82a3.75,3.75,0,0,1-2,.52,3.18,3.18,0,0,1-2.49-1.06,4,4,0,0,1-.95-2.78,4.17,4.17,0,0,1,1.06-2.95,3.55,3.55,0,0,1,2.73-1.15,4.11,4.11,0,0,1,1.67.36v0.77A3.31,3.31,0,0,0,768,516a2.71,2.71,0,0,0-2.15,1,3.65,3.65,0,0,0-.83,2.47,3.53,3.53,0,0,0,.75,2.36,2.49,2.49,0,0,0,2,.89,3.31,3.31,0,0,0,2-.6v0.7Z" transform="translate(-499.2 -438.1)"/><path class="cls-3" d="M774.64,523.34a3.32,3.32,0,0,1-2.62-1.09,4.72,4.72,0,0,1,0-5.78,3.49,3.49,0,0,1,2.66-1.06,3.25,3.25,0,0,1,2.55,1.06,4.25,4.25,0,0,1,.94,2.92,4.18,4.18,0,0,1-1,2.86A3.3,3.3,0,0,1,774.64,523.34ZM774.7,516a2.7,2.7,0,0,0-2.13.9,3.66,3.66,0,0,0-.79,2.51,3.52,3.52,0,0,0,.78,2.38,2.65,2.65,0,0,0,2.12.9,2.59,2.59,0,0,0,2.11-.88,4.5,4.5,0,0,0,0-4.94A2.57,2.57,0,0,0,774.7,516Z" transform="translate(-499.2 -438.1)"/><path class="cls-3" d="M789.57,523.15v-4.55a3.35,3.35,0,0,0-.45-2,1.68,1.68,0,0,0-1.41-.57,2,2,0,0,0-1.54.77,2.88,2.88,0,0,0-.65,1.93v4.43h-0.68v-4.6q0-2.52-1.92-2.52a1.89,1.89,0,0,0-1.54.77,3.11,3.11,0,0,0-.62,2v4.35h-0.68v-7.56h0.68v1.26h0a2.5,2.5,0,0,1,2.31-1.44,2.18,2.18,0,0,1,1.42.48,2.32,2.32,0,0,1,.79,1.25,2.92,2.92,0,0,1,1-1.28,2.48,2.48,0,0,1,1.43-.45q2.48,0,2.48,3.07v4.68h-0.68Z" transform="translate(-499.2 -438.1)"/><path class="cls-3" d="M711.08,499.43l-10-7.76-10,7.76v-3.16l10-7.76,10,7.76v3.16Zm-2.5-.28v7.5h-5v-5h-5v5h-5v-7.5l7.5-5.62Z" transform="translate(-499.2 -438.1)"/></svg>