<svg id="图层_1" data-name="图层 1" xmlns="http://www.w3.org/2000/svg" viewBox="0 0 253.34 253.36"><defs><style>.cls-1{fill:#d71718;}</style></defs><title>logo</title><path class="cls-1" d="M530.92,604.77c-68.84.07-125.53,57.64-125.26,127.21s57.18,126.31,126.79,126.15c73.23-.49,127.33-60.51,126.53-128.45C658.18,660.72,601.4,604.7,530.92,604.77Zm1.53,249.67c-67.59.09-123-55.3-123-123,0-67.24,54.91-122.77,121.45-122.85,68.66-.08,124.15,54.47,124.19,122.07C655.17,799,600.34,854.35,532.45,854.44Z" transform="translate(-405.66 -604.77)"/><path class="cls-1" d="M444.15,733.83c1.73,49.74,42.32,87.5,92.2,85.76,48.19-1.68,86.06-42.77,84-92.27-2-48.59-43.23-86.37-93.32-84C480.62,645.59,442.51,686.71,444.15,733.83ZM498.62,654c31.15-13.56,60.79-8.65,87.69,12.17a11.45,11.45,0,0,1,1.34,1.46,1.15,1.15,0,0,1-1,1.43l7.54,7.42a1.14,1.14,0,0,1,1.46-.89c27.38,28.17,28.38,77.67,2.21,109.4-23.35,28.31-62,38.67-95.63,25.61-34.87-13.55-56.9-46.88-54.31-84.13C450.31,692.52,467.47,667.56,498.62,654Z" transform="translate(-405.66 -604.77)"/><path class="cls-1" d="M583.11,666.46c-26.66-19.71-55.57-23.68-85.55-9.65s-46.09,38.72-47.72,71.74c-2.63,53.24,48.07,95.33,99.94,83.65a82.69,82.69,0,0,0,64-93.82c-2.42-15.74-9.49-29.25-19.26-41.54l-0.35-.34a3.87,3.87,0,0,0-.11.39c0.06,2.37,1.67,3.9,3,5.62A81,81,0,0,1,588.69,790c-18.09,17.61-40.49,24.91-65.52,22.05-40.14-4.58-71.28-37.22-72-79.13C450.69,704.15,463,681,486.61,664.41c14-9.88,30.07-14.45,47.07-14.29,17.25,0.16,33,5.9,47,16.13,1.73,1.27,3.34,2.82,5.68,2.9l0.37-.09-0.33-.32C585.27,668,584.17,667.24,583.11,666.46Z" transform="translate(-405.66 -604.77)"/><path class="cls-1" d="M552.22,708.24c-5.5,2.76-11,5.58-16.23,8.77-3.55,2.16-6.21,2.06-9.32-.82A66.47,66.47,0,0,0,509,704.1c-24.4-11-49.11,6.21-47.4,33,1.12,17.56,17.41,35.63,36.58,40.45,12.46,3.13,24.47,1.82,35.78-4.37,5.59-3.06,7.59-7.6,6.06-12.79-1.85-6.26-6.12-9.23-12.64-8.93-2.94.14-5.41,1.49-8,2.62-9.19,4-18.32,2-24.88-5.51-5.28-6-6.14-13.06-2.42-19.88,3.25-6,9.93-9.1,17.35-8.34,7.78,0.8,13.39,5.59,19,10.21,2.39,2,4.26,2.34,7,.59a90.82,90.82,0,0,1,11.07-5.67,18.28,18.28,0,0,1,10.72-1.5c12.25,2,18.42,13.46,13,24.81-6.81,14.15-18,24.15-31.63,31.59-4.08,2.23-8.42,4-12.49,6.22-6.39,3.52-7.62,10.4-3,16.07s11.72,7.38,19.43,3.55c19.3-9.57,36.54-21.88,49.56-39.4,6-8.07,9.79-17,9.71-27.23C602.87,719,579,694.8,552.22,708.24Z" transform="translate(-405.66 -604.77)"/><path class="cls-1" d="M518.11,699.77c11.62,0,20.3-8.25,20.38-19.39,0.09-12.31-10.75-22.84-23.61-22.93-11.47-.08-20.79,8.86-20.69,19.85C494.29,689.71,505,699.76,518.11,699.77Z" transform="translate(-405.66 -604.77)"/><path class="cls-1" d="M538.68,694.11c-1,1.54-1.09,2.5.64,3.56,6.89,4.23,14.06,5.07,21.38,1.52,7-3.4,10.82-9.09,10.94-13.54,0.11-19.46-17.58-31.72-31.39-25.23-2,.93-4.56,1.5-2.24,4.85C544.52,674.67,545.14,684.36,538.68,694.11Z" transform="translate(-405.66 -604.77)"/><polygon class="cls-1" points="25.45 126.83 35.56 127.81 30.19 119.19 34.24 109.88 24.39 112.33 16.79 105.6 16.07 115.72 7.32 120.87 16.73 124.69 18.92 134.6 25.45 126.83"/><polygon class="cls-1" points="235.52 115.09 233.7 105.1 226.88 112.62 216.82 111.27 221.87 120.08 217.47 129.23 227.41 127.15 234.75 134.16 235.85 124.07 244.78 119.25 235.52 115.09"/><polygon class="cls-1" points="33.76 157.63 22.93 156.91 22.91 156.82 32.19 151.15 31.76 149.37 20.91 148.52 20.89 148.44 30.2 142.86 29.75 141.02 18.75 148.02 19.19 149.85 29.97 150.71 29.99 150.77 20.77 156.43 21.21 158.25 34.2 159.48 33.76 157.63"/><polygon class="cls-1" points="41.46 175.21 30.71 176.62 30.68 176.54 38.66 169.16 37.89 167.49 27.08 168.79 27.05 168.72 35.08 161.42 34.28 159.7 24.86 168.73 25.65 170.43 36.4 169.16 36.42 169.22 28.5 176.57 29.29 178.28 42.26 176.93 41.46 175.21"/><polygon class="cls-1" points="42.2 194.45 42.15 194.38 48.54 185.58 47.46 184.09 37.11 187.48 37.06 187.41 43.52 178.69 42.4 177.16 34.92 187.85 36.03 189.36 46.32 186.02 46.36 186.07 40.02 194.83 41.13 196.35 53.59 192.5 52.47 190.96 42.2 194.45"/><path class="cls-1" d="M453.42,805.9a0.86,0.86,0,0,0-.78.23,0.94,0.94,0,0,0-.28.78,1.49,1.49,0,0,0,1.22,1.29,0.91,0.91,0,0,0,.79-0.24,0.86,0.86,0,0,0,.27-0.77A1.49,1.49,0,0,0,453.42,805.9Z" transform="translate(-405.66 -604.77)"/><polygon class="cls-1" points="66.71 206 67.51 205.07 58.39 197.15 57.59 198.08 61.52 201.49 54.23 209.88 55.5 210.98 62.78 202.59 66.71 206"/><rect class="cls-1" x="466.15" y="815.82" width="12.34" height="1.67" transform="translate(-872.43 121.75) rotate(-54.47)"/><path class="cls-1" d="M472,824.18l1.58,0.9,3.08-2.22,5.87,3.37L482.19,830l1.59,0.91,1.11-13.59-1.7-1Zm11.31-6-0.65,6.74-4.94-2.83,5.52-3.95Z" transform="translate(-405.66 -604.77)"/><polygon class="cls-1" points="91.67 229.19 91.61 229.17 87.49 216.78 85.83 216.14 81.35 227.63 82.93 228.25 86.61 218.8 86.67 218.82 90.79 231.31 92.41 231.94 96.89 220.45 95.31 219.84 91.67 229.19"/><polygon class="cls-1" points="109.74 223.56 103.84 228.39 100.6 221.49 98.61 221.04 102.73 229.49 101.62 234.37 103.27 234.75 104.38 229.86 111.73 224.01 109.74 223.56"/><path class="cls-1" d="M523.52,829.31l-6.79,11.82,1.81,0.15,1.85-3.32,6.75,0.55,1.28,3.57,1.83,0.15-4.77-12.77Zm-2.5,7.51,3.32-5.92h0.08l2.27,6.38Z" transform="translate(-405.66 -604.77)"/><polygon class="cls-1" points="138.52 224.47 136.44 224.58 132.71 229.6 128.47 225.03 126.38 225.14 131.74 230.78 126.68 237.49 128.76 237.37 132.84 231.84 137.52 236.88 139.6 236.76 133.78 230.67 138.52 224.47"/><path class="cls-1" d="M557.9,826.59l-1.66.34,1.53,7.47a3.67,3.67,0,0,1-.4,2.89,4.63,4.63,0,0,1-3,1.59,4.58,4.58,0,0,1-3.35-.3,3.61,3.61,0,0,1-1.5-2.5L548,828.6l-1.66.34,1.52,7.45a4.64,4.64,0,0,0,2.2,3.33,8.18,8.18,0,0,0,8.63-1.78,4.62,4.62,0,0,0,.7-3.9Z" transform="translate(-405.66 -604.77)"/><polygon class="cls-1" points="164.83 217.4 168.33 226.81 168.27 226.83 156.95 220.33 155.29 220.95 159.59 232.51 161.18 231.92 157.64 222.41 157.7 222.39 169.09 228.98 170.72 228.37 166.41 216.81 164.83 217.4"/><path class="cls-1" d="M590.38,823.88a6.64,6.64,0,0,0-4.5-7.94,8.3,8.3,0,0,0-9.1,5.17,6.61,6.61,0,0,0,4.49,7.92,7.2,7.2,0,0,0,5.45-1,8.1,8.1,0,0,0,3-2.81q1,0.33,2.44.88l0.57-1.26q-1.45-.55-2.44-0.87A0.51,0.51,0,0,1,590.38,823.88Zm-1.45-.29q-1.51-.44-3.37-0.85l-0.48,1.21q1.56,0.33,3.35.88a6,6,0,0,1-2.32,2.15,5.33,5.33,0,0,1-4.18.7,5.68,5.68,0,0,1-3.64-6.42,6.22,6.22,0,0,1,6.91-4A5.78,5.78,0,0,1,588.93,823.58Z" transform="translate(-405.66 -604.77)"/><rect class="cls-1" x="592.36" y="810.15" width="1.67" height="12.34" transform="translate(-771.16 -103.36) rotate(-35.81)"/><polygon class="cls-1" points="195.09 197.28 201.78 204.77 201.73 204.81 188.82 202.88 187.5 204.07 195.72 213.26 196.99 212.14 190.23 204.57 190.27 204.53 203.28 206.51 204.57 205.35 196.35 196.16 195.09 197.28"/><path class="cls-1" d="M613.5,803.87a1.49,1.49,0,0,0-1.19,1.32,0.86,0.86,0,0,0,.29.76,0.94,0.94,0,0,0,.8.22,1.49,1.49,0,0,0,1.19-1.32,0.91,0.91,0,0,0-.3-0.77A0.86,0.86,0,0,0,613.5,803.87Z" transform="translate(-405.66 -604.77)"/><path class="cls-1" d="M621.24,789.86a4,4,0,0,1,.95,2.85,5.51,5.51,0,0,1-1.12,2.88,5.18,5.18,0,0,1-3.47,2.36,5.07,5.07,0,0,1-3.72-1.11,5.22,5.22,0,0,1-2.24-3.22,5.16,5.16,0,0,1,1.1-4.09,5.78,5.78,0,0,1,2.28-2,3.18,3.18,0,0,1,2.6-.06l1-1.32a4.23,4.23,0,0,0-3.54-.11,7.41,7.41,0,0,0-3.3,2.71,6.91,6.91,0,0,0-1.51,5.43,6.2,6.2,0,0,0,2.67,4,6.11,6.11,0,0,0,4.58,1.27,7,7,0,0,0,4.62-3.15,7.24,7.24,0,0,0,1.47-4,5.21,5.21,0,0,0-1.36-3.84Z" transform="translate(-405.66 -604.77)"/><path class="cls-1" d="M628.49,772.36a6.13,6.13,0,0,0-4.91-.43,8.3,8.3,0,0,0-4.68,9.36,6.61,6.61,0,0,0,8.14,4.08,8.33,8.33,0,0,0,4.7-9.35A6.09,6.09,0,0,0,628.49,772.36Zm1.42,8.61a5.33,5.33,0,0,1-3.09,2.91,5.68,5.68,0,0,1-6.59-3.31,6.22,6.22,0,0,1,3.53-7.14,5.14,5.14,0,0,1,4,.45,5.09,5.09,0,0,1,2.7,2.9A5.45,5.45,0,0,1,629.91,781Z" transform="translate(-405.66 -604.77)"/><polygon class="cls-1" points="221.99 149.96 230.52 158.2 230.5 158.26 218.85 160.53 218.25 162.55 230.08 166.06 230.56 164.44 221.15 161.64 221.17 161.58 232.03 159.49 232.47 158.03 224.51 150.34 224.53 150.28 233.93 153.08 234.42 151.46 222.59 147.94 221.99 149.96"/><path class="cls-1" d="M428.86,687l3.51-7.18,5.41,2.64-4.34,8.89q0.34,1,1,.5l4.34-8.89q7.45,4.91,5.9,13.68,0.68,1.18,1.27,0,1.55-8.77-5.22-13.77a20.94,20.94,0,0,0,14-4.19q0.41-1.28-.76-1-5.55,4.5-14.49,3.94l4.17-8.55a0.61,0.61,0,0,0-1-.5l-4.34,8.89-5.41-2.64,3.67-7.53a0.61,0.61,0,0,0-1-.5l-7.68,15.74Q428.19,687.52,428.86,687Z" transform="translate(-405.66 -604.77)"/><path class="cls-1" d="M453,663.64a1.35,1.35,0,0,0-2-1.65,1.2,1.2,0,0,0,.35,1.56A1.24,1.24,0,0,0,453,663.64Z" transform="translate(-405.66 -604.77)"/><path class="cls-1" d="M464.05,651.67c0.58-.29.58-0.7,0-1.21a43.64,43.64,0,0,0-5.72.45q-1.16.68,0,1.21Q460.53,651.82,464.05,651.67Z" transform="translate(-405.66 -604.77)"/><path class="cls-1" d="M463.88,647.47q5.41,6.52,5.92,12.36,0.55,1,1.21,0,0-5.52-6.24-13.07l-3.28-4.13a0.67,0.67,0,0,1,.13-1.06l9.84-7.81a0.61,0.61,0,0,0-.7-0.88l-10.14,8a1.34,1.34,0,0,0-.26,2.13Z" transform="translate(-405.66 -604.77)"/><path class="cls-1" d="M467,638.26a0.72,0.72,0,0,0-.89.71l1.87,2.36-3.73,3a0.61,0.61,0,0,0,.7.88l3.73-3,2.11,2.65-4,3.19a0.7,0.7,0,0,0,.7.88l10.14-8a0.61,0.61,0,0,0-.7-0.88l-5.22,4.14-2.11-2.65,4-3.19a0.61,0.61,0,0,0-.7-0.88l-4,3.19Z" transform="translate(-405.66 -604.77)"/><path class="cls-1" d="M467.36,662.26a30.35,30.35,0,0,0-1-8.86q-0.7-.88-1.1.15a34.6,34.6,0,0,1,.84,8.71Q467,663.29,467.36,662.26Z" transform="translate(-405.66 -604.77)"/><path class="cls-1" d="M455.07,646.78a34.9,34.9,0,0,1,5-.39q0.86-.44,0-1.21a44.22,44.22,0,0,0-5.3.36Q453.92,646.25,455.07,646.78Z" transform="translate(-405.66 -604.77)"/><path class="cls-1" d="M473.1,645.92q-1-.38-0.89.71l1.64,2.06-3.73,3a0.7,0.7,0,0,0,.7.88l3.73-3,2.81,3.54-5.22,4.14a0.7,0.7,0,0,0,.7.88l11-8.75a0.61,0.61,0,0,0-.7-0.89l-4.92,3.91-2.81-3.54,4-3.2a0.61,0.61,0,0,0-.7-0.88l-4,3.19Z" transform="translate(-405.66 -604.77)"/><path class="cls-1" d="M488.87,635.24a1.37,1.37,0,1,0-1.48-.81A1.23,1.23,0,0,0,488.87,635.24Z" transform="translate(-405.66 -604.77)"/><path class="cls-1" d="M500.33,620.43l14.48-3.26q1.3-.29,1.36.85l0.41,1.84-15.41,3.47a0.61,0.61,0,0,0,.25,1.1L516.83,621l0.5,2.2a0.87,0.87,0,0,1-.87,1.35L502,627.78a0.61,0.61,0,0,0,.25,1.1L515,626l0.5,2.2-14.85,3.35a0.61,0.61,0,0,0,.25,1.1l14.85-3.35,1.32,5.88q1.05,2.08-5,1.31a0.72,0.72,0,0,0-.31,1.23q7.55,0.61,6.48-2.42L516.9,629l5-1.13a0.61,0.61,0,0,0-.25-1.1l-5,1.13-0.5-2.2,0.93-.21q2.08-.27,1.44-2.25l-1.32-5.88q-0.23-1.88-2.27-1.42l-14.85,3.34A0.61,0.61,0,0,0,500.33,620.43Z" transform="translate(-405.66 -604.77)"/><path class="cls-1" d="M509.31,636.93c0.67,0.1.93-.21,0.76-0.94a21,21,0,0,0-3.55-3.64,0.68,0.68,0,0,0-.76.94A30.68,30.68,0,0,1,509.31,636.93Z" transform="translate(-405.66 -604.77)"/><path class="cls-1" d="M533.56,625.2a1.37,1.37,0,1,0-1-1.38A1.24,1.24,0,0,0,533.56,625.2Z" transform="translate(-405.66 -604.77)"/><path class="cls-1" d="M558.83,619.32a18.66,18.66,0,0,0-1.31-2.81q-1-.62-1.09.52a26.81,26.81,0,0,1,1.17,2.58Q558.63,620.24,558.83,619.32Z" transform="translate(-405.66 -604.77)"/><path class="cls-1" d="M566.73,623.24a0.61,0.61,0,0,0,.25-1.1L548.79,618a0.61,0.61,0,0,0-.25,1.1Z" transform="translate(-405.66 -604.77)"/><path class="cls-1" d="M566.77,629q1.05-.34.25-1.1l-6.31-1.44,2.61-2.88q0-1-1-.62-1.35,1.63-2.88,3.21l-4.82-1.1q-0.7-2.09-1.58-4.22-1-.62-1.1.52,0.88,2.13,1.37,3.4l-7.24-1.65a0.61,0.61,0,0,0-.25,1.1Z" transform="translate(-405.66 -604.77)"/><path class="cls-1" d="M544.41,635.54a28.42,28.42,0,0,0,7.29-3.75q0.25-1.1-.76-0.95a27.55,27.55,0,0,1-6.65,3.51Q543.34,635.1,544.41,635.54Z" transform="translate(-405.66 -604.77)"/><path class="cls-1" d="M564.8,631.68l-8.54-1.94,0.38-1.65q-0.35-1-1.11-.25l-0.38,1.65-8.54-1.94a0.61,0.61,0,0,0-.25,1.1l8.54,1.94-1.38,6.06q-0.15,1.51-3-.68-1.11-.25-0.81,1a4.65,4.65,0,0,0,2.62,1.37,1.51,1.51,0,0,0,2.23-1.23l1.42-6.24,8.54,1.94A0.61,0.61,0,0,0,564.8,631.68Z" transform="translate(-405.66 -604.77)"/><path class="cls-1" d="M557.83,633.19q2.57,3.29,5,6.53,1.26,0.48,1-.75-2.82-3.92-4.81-6.31Q557.89,632,557.83,633.19Z" transform="translate(-405.66 -604.77)"/><path class="cls-1" d="M578.19,635.43a1.37,1.37,0,1,0-.29-1.67A1.24,1.24,0,0,0,578.19,635.43Z" transform="translate(-405.66 -604.77)"/><path class="cls-1" d="M598.88,640.52l3.27,2.61q-5.89,8.31-13.91,8.9-0.85.76,0,1.21,8.55-.65,14.79-9.4l3,2.37q1,0.83.19,1.59l-7.07,8.57q-3,4.09-6.82-1.83a0.71,0.71,0,0,0-1.15.53q4.87,7,8.75,2.16l7.42-9q1.32-1.35-.31-2.66L603.75,643l2.11-2.65a0.62,0.62,0,0,0-.89-0.71l-2.11,2.65-3.27-2.61A0.61,0.61,0,0,0,598.88,640.52Z" transform="translate(-405.66 -604.77)"/><path class="cls-1" d="M605.62,651.92a64.59,64.59,0,0,1-3.89,7,0.62,0.62,0,0,0,.89.71,70.12,70.12,0,0,0,4.12-7.31Q606.35,651.3,605.62,651.92Z" transform="translate(-405.66 -604.77)"/><path class="cls-1" d="M598.11,645.45c0.29-.57.07-0.91-0.66-1a22.68,22.68,0,0,1-6.84,3.7c-0.47.59-.38,1,0.27,1.18A24.68,24.68,0,0,0,598.11,645.45Z" transform="translate(-405.66 -604.77)"/><path class="cls-1" d="M585.64,651.64l9.15-11.48,2.08,1.66a0.61,0.61,0,0,0,.7-0.88l-2.08-1.66,3.52-4.42a0.62,0.62,0,0,0-.89-0.71l-3.52,4.42-2.08-1.66a0.61,0.61,0,0,0-.7.88l2.08,1.66-9.15,11.48A0.62,0.62,0,0,0,585.64,651.64Z" transform="translate(-405.66 -604.77)"/><path class="cls-1" d="M615.69,663.94a1.18,1.18,0,0,0,.32-1.6,1.2,1.2,0,0,0-1.6,0A1.24,1.24,0,0,0,614,664,1.19,1.19,0,0,0,615.69,663.94Z" transform="translate(-405.66 -604.77)"/><path class="cls-1" d="M634.4,678.73a0.78,0.78,0,0,1,.58,1.2,44.92,44.92,0,0,0-2.2,12.28q0.42,0.86,1.1.1a54.8,54.8,0,0,1,2.46-12.62,1.4,1.4,0,0,0-.92-1.88,38.16,38.16,0,0,1-11.51-6q-1.1-.1-0.6.92A36.81,36.81,0,0,0,634.4,678.73Z" transform="translate(-405.66 -604.77)"/><path class="cls-1" d="M626,676.9l5.32,11q0.92,0.61,1-.49l-5.32-11Q626.07,675.8,626,676.9Z" transform="translate(-405.66 -604.77)"/><path class="cls-1" d="M614.37,682.32q2.33,4.37,6.58,11.83-0.42.42-1,.92c-0.34.73-.12,1,0.67,0.95a34.43,34.43,0,0,0,4.59-5.19q-0.08-1-.92-0.61a28.74,28.74,0,0,1-2.64,3.19q-3.58-6.51-5.91-10.88-0.67-.94.26-0.76,3.12,0.39,7.5.8L628.56,693q0.92,0.61,1-.49l-8.39-17.29a0.61,0.61,0,0,0-1,.49l2.74,5.65q-3.71-.31-7.5-0.8Q613.46,680.43,614.37,682.32Z" transform="translate(-405.66 -604.77)"/></svg>