<svg xmlns="http://www.w3.org/2000/svg" viewBox="0 0 291.05 92.38"><defs><style>.cls-1{fill:#000fff;}.cls-1,.cls-2{opacity:0.5;}.cls-2{fill:#040000;}.cls-3{fill:#fff;}</style></defs><title>资源 2</title><g id="图层_2" data-name="图层 2"><g id="图层_0_拷贝_图像" data-name="图层 0 拷贝 图像"><path class="cls-1" d="M40.09,92.32c-3.7-1.56-7.92-5.61-8.37-8.16-.45-10.53,3.78-34,0-37.72C21.71,39.36,5.92,54.1,0,49.3c.25-3.12,14.16-13,24.54-16.92C38.69,27,51.37,29.76,62.87,26.32,78.77,21.53,80.71,8.2,94.53,10.81c3.77,5.65-15.3,16.06-20,29.41C65.4,59.33,78.65,74.78,65.9,92,54.81,96.06,72.25,67.73,50.73,68.2,35.32,70.44,45.75,86.55,40.09,92.32Z"/><path class="cls-2" d="M59.6,15.13c-3.31,2.6-6.83,4.94-7,7.68-2.79-2.81-6-5.2-10.14-6.1-4.34-.95-7.72-2.25-9.35-4.86C32.52,10,31.24,5,38.23,2.45c7.85-2.65,11.64,3.3,11.64,3.3S55.37-1.73,62.19.37C76,7.13,59.6,15.13,59.6,15.13Z"/><path class="cls-3" d="M139.71,21.08V22.4H124.52V39.27h17.62V41H125.08l15,25.5h2.06V68H129.21L118.71,52,108.4,68H95.27v-1.5h2.06l15-25.5H95.27V39.27H112.9V22.4H97.71V21.08Z"/><path class="cls-3" d="M158.65,33.83H147.4l-4.12-10.5h11.25Zm0,13.13H147.4l-4.12-10.5h11.25ZM143.27,67.77h11.25l4.13-17.44H147.4Zm23.25-8.44h7.88V58h-5.62v-7.5h5.63V49.21h-7.12a69.08,69.08,0,0,1-.75,7.31A43.19,43.19,0,0,1,163,68.15l-5.81-5.81A24.13,24.13,0,0,0,160,51.83q.37-3.94.38-6.19V23.15h29.81v8.06h-8.06v1.88h6.38v7.13h-6.37v1.31h7.31v7.69h-7.31v1.31h6.56V58h-6.56v1.31H190v8.44H166.52Zm.75-17.81h7.13V40.21h-5.62V33.08h5.63V31.21h-7.12Z"/><path class="cls-3" d="M191.27,48.46h30.19V44h11.81v4.5h4.88v1.88h-4.87V63.65a4.19,4.19,0,0,1-.37,1.87A4.44,4.44,0,0,1,232,67a6,6,0,0,1-1.5,1.13,5,5,0,0,1-1.87.38H215.65V66.65h3.94a1.46,1.46,0,0,0,1.31-.56,1.8,1.8,0,0,0,.56-1.31V50.33H191.27ZM193.15,31h32.06V23.33H193.15V21.65h43.69V37.77a5.48,5.48,0,0,1-1.12,3.38,3.75,3.75,0,0,1-3,1.31H193.15V41h30.19a1.92,1.92,0,0,0,1.88-1.87V32.9H193.15Z"/><path class="cls-3" d="M239.27,38.52l7.31.19-2.25-7.87h10.88l2.06,7.69h10.88l2.06-7.69h10.88l-2.25,7.69h7.31V41H268.52V47.9h16.69v2.63H268.52V63.27a5,5,0,0,1-.37,1.87,10.16,10.16,0,0,1-.94,1.5,4.44,4.44,0,0,1-1.5.94,5,5,0,0,1-1.87.38H253V64.21h2.44a1.28,1.28,0,0,0,.94-.37l.56-13.31H240.21V47.9H256.9V41H239.27Zm.38,28.69,2.63-13.31H253l-2.62,13.31ZM240,25H256.9V21.08h11.63V25H285.4v2.25H240Zm35.06,42.19L272.46,53.9h10.69l2.63,13.31Z"/><path class="cls-3" d="M99.1,86.56h-.75V82.2H94a9,9,0,0,1-1.59,4.58,6.81,6.81,0,0,0-.7-.51,8.16,8.16,0,0,0,1.33-2.85,18.36,18.36,0,0,0,.32-4.18V74.38h10.83v10.5q.06,1.69-1.72,1.71l-.76,0h-.87a6.36,6.36,0,0,0-.14-.81c.5,0,1,0,1.63,0q1.15,0,1.1-1V82.2H99.1Zm-5-7.29q0,1-.05,2.26h4.26V78.64h-4.2Zm0-4.18V78h4.2V75.09Zm9.32,0H99.1V78h4.37ZM99.1,78.64v2.88h4.37V78.64Z"/><path class="cls-3" d="M107.25,77.72l.79.21q-.62,2.71-1.42,5.36a8,8,0,0,0-.81-.28A38.25,38.25,0,0,0,107.25,77.72Zm2.07-1.51h.79v7.94a1.44,1.44,0,0,0,.3,1.07,1.48,1.48,0,0,0,1.09.3h2.66q1.49,0,1.68-1.21.12-.7.24-1.89.49.18.81.27-.15,1.22-.32,2-.29,1.61-2.27,1.57h-3a1.71,1.71,0,0,1-2-2Zm4.29,1.47q-1-1.89-2.23-3.79l.7-.37q1.11,1.71,2.28,3.74Zm4.66,4.81q-1-2.4-2.24-4.84l.75-.32q1.26,2.53,2.31,4.79Z"/><path class="cls-3" d="M120.49,81v-.67h4V81Z"/><path class="cls-3" d="M128.51,84.48q1.23-.94,2.25-1.78a8,8,0,0,0,.25.8q-1.11.78-2.45,1.85a4.84,4.84,0,0,0-.66.66l-.66-.64a1.72,1.72,0,0,0,.38-.57,2,2,0,0,0,.11-.72V79h-1.92v-.71h2.69Zm.83-7.71a28.88,28.88,0,0,0-2.19-2.21l.59-.51q1.2,1.11,2.24,2.16Zm4.4-3h.78v4h3.85v.75h-3.85v6.66h4.53v.76h-8.8v-.76h3.5Z"/><path class="cls-3" d="M152.58,86.58a21.31,21.31,0,0,1-5.37-1.37,23.59,23.59,0,0,1-5.45,1.57,5.61,5.61,0,0,0-.39-.7,23,23,0,0,0,5-1.25,10.43,10.43,0,0,1-3-2.31,13.27,13.27,0,0,1-3.12,3.56,5.7,5.7,0,0,0-.46-.65,11.74,11.74,0,0,0,3.91-5.17h-3.63v-.68H144q.1-.28.28-.87l.14-.45.77.12q-.19.64-.41,1.2h8.2v.68h-8.46a12.08,12.08,0,0,1-.62,1.35h7.41v.76a13.22,13.22,0,0,1-3.19,2.43,20.75,20.75,0,0,0,4.85,1.05A7.48,7.48,0,0,0,152.58,86.58Zm-12.12-9.41H149q.85-1.13,1.48-2.08l.67.35-.18.23q-.7.93-1.16,1.5h2.66v1.75h-.73V77.83H141.18v1.09h-.72Zm11.94-2.54q-5.28.25-11.6.4c0-.21-.08-.44-.14-.7q6.15,0,11.55-.38Zm-10.3.94.59-.33q.44.59,1,1.44L143,77Q142.55,76.24,142.09,75.58Zm8.27,6.69h-6.3a11.13,11.13,0,0,0,3.17,2.19A11.74,11.74,0,0,0,150.36,82.27Zm-4.48-6.87.62-.28q.48.76.91,1.57l-.66.31Q146.36,76.19,145.88,75.39Z"/><path class="cls-3" d="M154.63,74.37h11.61v12.3h-.73v-.9H155.36v.9h-.73Zm.73.68v10h10.14V75Zm2.34,2.46h5.46v5H157.7Zm.71.66v3.66h4V78.16Z"/><path class="cls-3" d="M168.52,83.92a5.27,5.27,0,0,0-.44-.7,13.49,13.49,0,0,0,5.49-2.88l-.12-.17a6.76,6.76,0,0,0-.46-.6,18.68,18.68,0,0,1-4.63,2.06,5.49,5.49,0,0,0-.4-.7,15,15,0,0,0,5.77-2.7h-4v-.65h9.47v.65h-4.41a14.08,14.08,0,0,1-1.2,1,8.25,8.25,0,0,1,1.33,2A44.28,44.28,0,0,0,179.08,79l.42.62q-1.18.63-2.62,1.32a6.23,6.23,0,0,0,4,4,6.76,6.76,0,0,0-.48.68,7.15,7.15,0,0,1-4.14-4.4l-.65.3-.47.22a6.21,6.21,0,0,1,.41,2.19q.07,2.63-2,2.59l-1.67,0a5.87,5.87,0,0,0-.21-.79q1.05,0,1.69,0a1.27,1.27,0,0,0,1.1-.4,2.36,2.36,0,0,0,.31-1.45,6.08,6.08,0,0,0-.15-1.33,15.11,15.11,0,0,1-6.25,3.7,5.67,5.67,0,0,0-.42-.7,13.81,13.81,0,0,0,6.44-3.74,5.7,5.7,0,0,0-.48-1A14.83,14.83,0,0,1,168.52,83.92Zm5.26-10.21.7-.25q.4.77.76,1.64l-.62.24h5.91v2h-.73V76H169v1.36h-.72v-2h6.21Q174.12,74.38,173.79,73.71Z"/><path class="cls-3" d="M185.63,85a2.34,2.34,0,0,1-1,.25q-1.67,0-1.67-2V78.12H181.6v-.62H183v-2l.33-.12.34-.12v2.19h2v.62h-2v5a2,2,0,0,0,.25,1.13,1,1,0,0,0,.84.35,1.89,1.89,0,0,0,.91-.27Z"/><path class="cls-3" d="M187.47,75.59a.56.56,0,0,1-.56-.57.51.51,0,0,1,.17-.39.57.57,0,0,1,.39-.15.6.6,0,0,1,.4.15.49.49,0,0,1,.17.4.58.58,0,0,1-.57.57Zm-.33,9.47V77.49h.68v7.56Z"/><path class="cls-3" d="M194.75,85.05V83.54h0a3,3,0,0,1-1.05,1.23,2.69,2.69,0,0,1-1.53.46,2.37,2.37,0,0,1-1.71-.6,2,2,0,0,1-.63-1.53q0-2,2.63-2.39l2.32-.35q0-2.43-1.83-2.43a3.73,3.73,0,0,0-2.43,1v-.82a3.61,3.61,0,0,1,1.14-.57,4.4,4.4,0,0,1,1.36-.24,2.27,2.27,0,0,1,1.8.72,3.1,3.1,0,0,1,.64,2.11v4.92Zm-2.08-3.77a3.65,3.65,0,0,0-1.67.55,1.71,1.71,0,0,0,0,2.35,1.72,1.72,0,0,0,1.25.43,2.33,2.33,0,0,0,1.81-.81,3,3,0,0,0,.72-2.08V81Z"/><path class="cls-3" d="M202.85,85.05v-4.4q0-2.72-2-2.72a2.29,2.29,0,0,0-1.8.8,2.89,2.89,0,0,0-.7,2v4.34h-.68V77.49h.68v1.37h0A2.74,2.74,0,0,1,201,77.31a2.25,2.25,0,0,1,1.87.82,3.66,3.66,0,0,1,.65,2.33v4.6Z"/><path class="cls-3" d="M207.65,86.6a4.41,4.41,0,0,1-.91,1.51,1.77,1.77,0,0,1-1.29.49,1.59,1.59,0,0,1-.59-.1v-.68a1.73,1.73,0,0,0,.62.1q.9,0,1.43-1.25l.7-1.68-2.86-7.5h.76l2.28,6.16.1.3a2.24,2.24,0,0,0,.06.25h0l.18-.51,2.43-6.2h.74Z"/><path class="cls-3" d="M217.17,85.05V83.54h0a3,3,0,0,1-1.05,1.23,2.69,2.69,0,0,1-1.53.46,2.37,2.37,0,0,1-1.71-.6,2,2,0,0,1-.63-1.53q0-2,2.63-2.39l2.32-.35q0-2.43-1.83-2.43a3.73,3.73,0,0,0-2.43,1v-.82a3.62,3.62,0,0,1,1.14-.57,4.41,4.41,0,0,1,1.36-.24,2.27,2.27,0,0,1,1.8.72,3.1,3.1,0,0,1,.64,2.11v4.92Zm-2.08-3.77a3.66,3.66,0,0,0-1.67.55,1.49,1.49,0,0,0-.48,1.24,1.47,1.47,0,0,0,.45,1.1,1.72,1.72,0,0,0,1.25.43,2.33,2.33,0,0,0,1.81-.81,3,3,0,0,0,.72-2.08V81Z"/><path class="cls-3" d="M222.46,81.35l2.47,3.71h-.86l-2-3.19h0l-.27.42-.12.2L220,85.05h-.83l2.52-3.69-2.48-3.87h.8l1.68,2.71q.33.53.39.65h0l.38-.62,1.76-2.74H225Z"/><path class="cls-3" d="M231.48,85.05V83.68h0A2.59,2.59,0,0,1,229,85.24q-2.68,0-2.68-3.38V77.49H227v4.2a3.84,3.84,0,0,0,.51,2.23,1.84,1.84,0,0,0,1.59.69,2.12,2.12,0,0,0,1.71-.78,3.11,3.11,0,0,0,.65-2.07V77.49h.68v7.56Z"/><path class="cls-3" d="M239.72,85.05v-4.4q0-2.72-2-2.72a2.29,2.29,0,0,0-1.8.8,2.89,2.89,0,0,0-.7,2v4.34h-.68V77.49h.68v1.37h0a2.74,2.74,0,0,1,2.58-1.56,2.25,2.25,0,0,1,1.87.82,3.66,3.66,0,0,1,.65,2.33v4.6Z"/><path class="cls-3" d="M248,88.53V83.67h0a2.88,2.88,0,0,1-2.74,1.57,2.82,2.82,0,0,1-2.28-1,4.26,4.26,0,0,1-.86-2.81,4.31,4.31,0,0,1,1-3,3.2,3.2,0,0,1,2.5-1.1A2.49,2.49,0,0,1,248,78.72h0V77.49h.68v11Zm0-8a2.68,2.68,0,0,0-.66-1.86,2.33,2.33,0,0,0-1.83-.73,2.46,2.46,0,0,0-1.94.9,4.49,4.49,0,0,0-.09,4.92,2.18,2.18,0,0,0,1.79.87,2.52,2.52,0,0,0,2-.81,2.92,2.92,0,0,0,.7-2Z"/><path class="cls-3" d="M251.48,75.59a.56.56,0,0,1-.56-.57.51.51,0,0,1,.17-.39.57.57,0,0,1,.39-.15.6.6,0,0,1,.4.15.49.49,0,0,1,.17.4.58.58,0,0,1-.57.57Zm-.33,9.47V77.49h.68v7.56Z"/><path class="cls-3" d="M259.39,85.05v-4.4q0-2.72-2-2.72a2.29,2.29,0,0,0-1.8.8,2.9,2.9,0,0,0-.7,2v4.34h-.68V77.49h.68v1.37h0a2.73,2.73,0,0,1,2.58-1.56,2.25,2.25,0,0,1,1.87.82,3.66,3.66,0,0,1,.65,2.33v4.6Z"/><path class="cls-3" d="M262.81,85.18a.56.56,0,0,1-.42-.17.58.58,0,0,1-.17-.42.57.57,0,0,1,.17-.42.58.58,0,0,1,.42-.16.61.61,0,0,1,.43.16.55.55,0,0,1,.18.42.57.57,0,0,1-.18.42A.6.6,0,0,1,262.81,85.18Z"/><path class="cls-3" d="M270.59,84.72a3.75,3.75,0,0,1-2,.52,3.18,3.18,0,0,1-2.49-1.06,4,4,0,0,1-.95-2.78,4.17,4.17,0,0,1,1.06-2.95,3.55,3.55,0,0,1,2.73-1.15,4.11,4.11,0,0,1,1.67.36v.77a3.31,3.31,0,0,0-1.78-.5,2.71,2.71,0,0,0-2.15,1,3.65,3.65,0,0,0-.83,2.47,3.53,3.53,0,0,0,.75,2.36,2.49,2.49,0,0,0,2,.89,3.31,3.31,0,0,0,2-.6Z"/><path class="cls-3" d="M275.44,85.24a3.32,3.32,0,0,1-2.62-1.09,4.72,4.72,0,0,1,0-5.78,3.49,3.49,0,0,1,2.66-1.06,3.25,3.25,0,0,1,2.55,1.06,4.25,4.25,0,0,1,.94,2.92,4.18,4.18,0,0,1-1,2.86A3.3,3.3,0,0,1,275.44,85.24Zm.05-7.31a2.7,2.7,0,0,0-2.13.9,3.66,3.66,0,0,0-.79,2.51,3.52,3.52,0,0,0,.78,2.38,2.65,2.65,0,0,0,2.12.9,2.59,2.59,0,0,0,2.11-.88,4.5,4.5,0,0,0,0-4.94A2.57,2.57,0,0,0,275.5,77.93Z"/><path class="cls-3" d="M290.37,85.05V80.51a3.35,3.35,0,0,0-.45-2,1.68,1.68,0,0,0-1.41-.57,2,2,0,0,0-1.54.77,2.88,2.88,0,0,0-.65,1.93v4.43h-.68v-4.6q0-2.52-1.92-2.52a1.89,1.89,0,0,0-1.54.77,3.11,3.11,0,0,0-.62,2v4.35h-.68V77.49h.68v1.26h0a2.5,2.5,0,0,1,2.31-1.44,2.18,2.18,0,0,1,1.42.48,2.32,2.32,0,0,1,.79,1.25,2.92,2.92,0,0,1,1-1.28,2.48,2.48,0,0,1,1.43-.45q2.48,0,2.48,3.07v4.68Z"/><path class="cls-3" d="M211.88,61.33l-10-7.76-10,7.76V58.17l10-7.76,10,7.76Zm-2.5-.28v7.5h-5v-5h-5v5h-5V61l7.5-5.62Z"/></g></g></svg>