<svg id="图层_1" data-name="图层 1" xmlns="http://www.w3.org/2000/svg" viewBox="0 0 502.34 502.3"><defs><style>.cls-1{fill:#e7091a;}.cls-2{fill:#fffefe;}.cls-3{fill:#e60515;}.cls-4{fill:#e70918;}.cls-5{fill:#e60415;}.cls-6{fill:#e70e1c;}.cls-7{fill:#e70c1b;}.cls-8{fill:#fdf0ed;}.cls-9{fill:#fef8f7;}.cls-10{fill:#fffcfc;}.cls-11{fill:#e60112;}.cls-12{fill:#fffffe;}.cls-13{fill:#fffdfd;}</style></defs><title>logo1</title><path class="cls-1" d="M298.87,169.89C436.39,169.65,549.95,281.28,550,421,550,560,437.33,672.16,298.82,672.19c-139.08,0-252.45-113.24-251.2-253.48C48.86,280.25,161.78,169.58,298.87,169.89ZM546.19,421C546.26,284.71,436,174.94,301.32,173.59c-136.06-1.37-248.76,107.79-250,245.25s109.4,249.53,247.27,249.6C436.74,668.5,546.32,556.43,546.19,421Z" transform="translate(-47.61 -169.89)"/><path class="cls-2" d="M546.19,421c0.13,135.4-109.45,247.46-247.55,247.39-137.88-.07-248.47-112.26-247.27-249.6s113.9-246.61,250-245.25C436,174.94,546.26,284.71,546.19,421ZM126.77,559.38l-0.52-.41c3.76-5.27,7.84-10.3,11.77-15.44,0.69-.9,1.95-1.86.93-3.12s-2.21-.37-3.3,0l-17,6.44a1.43,1.43,0,0,1-1.6.12,5.58,5.58,0,0,1,1.48-1.83l11.91-11.83a10.44,10.44,0,0,0,1.28-1.41,1.32,1.32,0,0,0-.2-1.75,1.27,1.27,0,0,0-1.74-.15,5,5,0,0,0-.89.79q-7.56,7.53-15.12,15.07c-1.67,1.67-1.91,2.7-1.07,4s1.76,1.37,4.06.51L132,544.7a1.79,1.79,0,0,1,1.8-.2c-0.19.3-.34,0.58-0.53,0.82L123,558.57a11.06,11.06,0,0,0-1.1,1.56,2.34,2.34,0,0,0,2.47,3.42,6.32,6.32,0,0,0,2.2-.9l16-8.22c1.06-.55,2.13-1.08,3.19-1.65,0.75-.4,1.41-0.92,1-1.89a1.52,1.52,0,0,0-2.24-.66c-0.66.28-1.28,0.65-1.92,1ZM251.4,217.88a6.49,6.49,0,0,0,.28,4.42c0.46,1.07.27,1.71-1.09,2-2.49.56-4.92,1.34-7.37,2.06-2.17.63-2.63,1.18-2.28,2.63,0.39,1.64,1.2,2,3.3,1.45,1.08-.28,2.14-0.66,3.23-0.9,1.91-.41,3.74-1.22,5.76-1.44a80,80,0,0,1,2.12,7.8c-0.84.26-1.58,0.51-2.34,0.72-3.46,1-6.92,1.9-10.37,2.91-1.35.4-1.69,1.24-1.27,2.6a1.77,1.77,0,0,0,2.35,1.4,13.74,13.74,0,0,0,1.4-.33l14.06-3.93c4.3-1.2,8.61-2.38,12.9-3.62,1.61-.47,2.08-1.27,1.74-2.6s-1.13-1.85-2.92-1.38-3.37,1-5.08,1.4a55.92,55.92,0,0,1-6.26,1.59c-0.58-2.06-1.12-4-1.65-5.89s-0.53-2,1.48-2.55c2.3-.66,4.62-1.25,6.91-2,1.68-.52,2-1.17,1.62-2.6s-1-1.82-2.67-1.45c-0.47.1-.92,0.25-1.39,0.37l-7.46,2a5.89,5.89,0,0,1-.88-2.43,3.23,3.23,0,0,0-2.23-2.76c0.45-.82,1.35-0.7,2.06-0.91,3.44-1,6.92-1.91,10.36-2.94a1.83,1.83,0,0,0,1.45-2.54c-0.34-1.31-1.05-1.74-2.52-1.42-1.17.25-2.31,0.62-3.46,0.93l-7.87,2.14-1.8-6.54c0.86-.27,1.6-0.51,2.35-0.73,2.14-.62,4.31-1.17,6.43-1.87,1.41-.46,1.69-1.21,1.28-2.6s-0.92-1.62-2.32-1.4a15.25,15.25,0,0,0-1.62.42c-2,.54-4,1.06-6,1.65a1.12,1.12,0,0,1-1.69-1c-0.23-1.07-.61-2.11-0.94-3.21l10.66-3a10,10,0,0,0,1.59-.52,1.71,1.71,0,0,0,.91-2.21c-0.26-1-.79-1.78-2-1.66a9.75,9.75,0,0,0-1.62.38l-23.74,6.6a40.71,40.71,0,0,0-4.12,1.24,3.32,3.32,0,0,0-2.35,4,19.12,19.12,0,0,0,.67,3c1.78,6.55,3.73,13,5.27,19.66,1.41,6.08,2.06,12.13-.08,18.18a4.22,4.22,0,0,0-.2,1.18,2,2,0,0,0,1.65,2.27,1.9,1.9,0,0,0,2.35-1.14,6.27,6.27,0,0,0,.43-1.11,32.2,32.2,0,0,0,1.51-9.9,57.71,57.71,0,0,0-1.72-11.59,4.94,4.94,0,0,1-.27-2.65,3.19,3.19,0,0,0,3,.37C244.48,219.7,247.82,218.32,251.4,217.88Zm211.7,84a0.65,0.65,0,0,1-.77.32c-2.14.11-2.45,0.42-2.62,2.51-0.09,1.11-.18,2.22-0.27,3.34-0.29,3.58-.77,7.13-1.34,10.67-0.27,1.69.17,2.51,1.41,2.81,1.4,0.34,2.17-.21,2.67-2a17.37,17.37,0,0,0,.42-2.1A124.18,124.18,0,0,0,464,303.95a0.59,0.59,0,0,1,.49-0.67c1.22,1.58,2.43,3.16,3.65,4.73,0.69,0.88,1.36,1.78,2.1,2.62,1.05,1.2,2.07,1.33,3.1.49s1-1.7.21-3c-0.31-.46-0.69-0.88-1-1.32-3.09-3.87-6.2-7.74-9.28-11.63a3,3,0,0,1-1.09-1.84c1-.79,2-1.6,3-2.39,1.3-1,1.33-1,2.4.29q5.71,7.1,11.39,14.23a13.15,13.15,0,0,0,1.44,1.6,1.69,1.69,0,0,0,2.39-.08,1.79,1.79,0,0,0,.66-2.5,12,12,0,0,0-1-1.36c-2.19-2.76-4.39-5.5-6.56-8.27-0.36-.46-1-0.79-0.86-1.61,3.15-.73,6.52-0.71,9.44-2.61l1.8,2.24c0.65,0.81,1.27,1.65,2,2.41,1,1.06,1.7,1.13,2.7.39a1.9,1.9,0,0,0,.52-2.9,14.47,14.47,0,0,0-1-1.33c-3-3.75-6-7.52-9-11.23-0.81-1-1.15-1.75-.19-2.87a9,9,0,0,0,1.47-2.73,1.84,1.84,0,0,0-1.15-2.53c-1.16-.58-1.81-0.38-2.61.8-0.47.69-.61,1.61-1.47,2.21-0.57-.67-1.09-1.26-1.58-1.87l-8.83-11.06a13.82,13.82,0,0,0-1.24-1.46,1.79,1.79,0,0,0-2.74,0c-1,.89-1,1.68-0.11,3,1.09,1.48,2.27,2.89,3.35,4.25-2.7,2.55-2.24,6.5-4.48,9.34l-4.19-5.19c-1.4-1.74-2.75-3.54-4.23-5.22a2.07,2.07,0,0,0-3.62.66c-0.43,1.09.29,1.83,0.88,2.57,3.53,4.44,7.09,8.87,10.62,13.32,0.79,1,2.21,1.91,2.15,3-0.07,1.31-1.8,1.84-2.8,2.7-1.25,1.08-1.32,1-2.39-.29q-5-6.27-10-12.55a16.31,16.31,0,0,0-1.23-1.47c-1-1-1.75-1-2.74-.2a1.79,1.79,0,0,0-.43,2.73c1.26,1.75,2.68,3.39,4,5.1,0.51,0.68,1.32,1.18,1.39,2.15-0.76.35-1.54-.06-2.33,0.08a36.75,36.75,0,0,1-12.62-.24,7.49,7.49,0,0,0-1.42-.19,1.85,1.85,0,0,0-2,2.11c0,1.19.49,1.72,2.2,2a48.18,48.18,0,0,0,13.35.65c3.56-.33,3.72-0.46,3.63-3.95,1.79,2.25,3.56,4.52,5.4,6.73a1,1,0,0,1-.22,1.73c-2.71,2.11-5.45,4.19-8.05,6.44-1.67,1.44-2.9,1-3.86-.7-0.5-.9-0.88-1.87-1.31-2.82a16.81,16.81,0,0,0-.79-1.74,2,2,0,0,0-2.66-.89,1.81,1.81,0,0,0-1.34,2.44c1,3.24,2.38,6.29,5.16,8.44a4,4,0,0,0,4.29.52,15,15,0,0,0,3.4-2.21l8.7-6.94A48.37,48.37,0,0,1,463.1,301.92ZM112.48,393.41c-5.44,1.25-10.9,2.45-16.32,3.8a1.92,1.92,0,0,1-2.52-1c-2.81-4.56-5.68-9.08-8.55-13.6a2.14,2.14,0,0,0-1.27-1.39,5.19,5.19,0,0,0-.33,2.09q-0.5,7.78-1,15.56c-0.12,1.84-.12,1.85-1.95,2.34l-15.93,4.34c-0.41.11-1-.05-1.14,0.76,0.55,0.23,1.12.49,1.69,0.72q7.12,2.83,14.24,5.65c2.57,1,2.17.56,2,3.23-0.19,4-.5,8-0.75,12-0.1,1.56-.16,3.13-0.24,4.69A3.49,3.49,0,0,0,82,431.36c3.34-4.08,6.74-8.12,10-12.28,0.93-1.19,1.71-1.24,3-.72,4.59,1.85,9.21,3.61,13.84,5.36a4.69,4.69,0,0,0,2.45.7,1.88,1.88,0,0,0-.48-1.12c-2.86-4.62-5.69-9.26-8.62-13.84a2.06,2.06,0,0,1,.21-2.92c2.26-2.59,4.42-5.27,6.57-8a33.07,33.07,0,0,0,3.78-4.9c0.18-.06.44-0.13,0.26-0.37S112.64,393.25,112.48,393.41Zm374.63,28.07a3,3,0,0,0,1.37-.37c4.82-1.91,9.66-3.76,14.45-5.75a2,2,0,0,1,2.82.72c3.41,4.13,6.91,8.18,10.4,12.25a2.38,2.38,0,0,0,1.37,1.24,1.19,1.19,0,0,0,.09-1.1c-0.43-5.5-.88-11-1.29-16.49-0.16-2.05-.13-2.07,1.64-2.84s3.38-1.44,5.06-2.17L534.36,402a3.54,3.54,0,0,0-1.7-.73l-15.82-3.79c-1.8-.44-1.79-0.45-1.93-2.35-0.18-2.47-.28-5-0.57-7.41-0.39-3.22-.29-6.48-0.94-9.69a1.68,1.68,0,0,0-1,1c-2.85,4.72-5.72,9.42-8.52,14.17a1.86,1.86,0,0,1-2.48,1c-3.47-.92-7-1.66-10.48-2.46-2.24-.51-4.49-1-7.16-1.57,0.81,1,1.3,1.63,1.81,2.24,3.23,3.86,6.43,7.76,9.73,11.56a2,2,0,0,1,.22,2.9c-2.61,4.12-5.1,8.3-7.59,12.49-0.37.62-1.21,1.12-.79,2.06-0.11-.14-0.2-0.14-0.27,0L487,421.6C487.26,421.71,486.82,421.61,487.11,421.48ZM347.87,223.69c-0.2.78-.93,0.38-1.39,0.6a2,2,0,0,0-1.36,2.48c1.06,3.59,1.87,7.24,2.64,10.9a2.24,2.24,0,0,0,.26.66,1.89,1.89,0,0,0,2.65.82c1.37-.57,1.28-1.72,1.11-2.83a87.07,87.07,0,0,0-2.49-10.69c-0.09-.33-0.5-0.68,0-1,1.5-.16,2.77.62,4.11,1,5.33,1.68,10.62,3.47,15.95,5.14,1.17,0.37,1.53.77,1.09,2-1.07,3-2,6.08-3,9.1-0.67,2-1.48,2.31-3.47,1.58a24.27,24.27,0,0,1-5-2.88,23.36,23.36,0,0,0-2-1.27,1.89,1.89,0,0,0-2.55.59,2,2,0,0,0-.12,2.64,7.51,7.51,0,0,0,1.57,1.46,29.2,29.2,0,0,0,7,3.68c4.73,1.75,7,.68,8.57-4.14,1.06-3.18,2.12-6.37,3.1-9.57,0.34-1.09.76-1.34,1.88-.93,2.47,0.91,5,1.71,7.51,2.45a2.12,2.12,0,0,0,2.84-2.58,2.32,2.32,0,0,0-1.89-1.62c-2.35-.76-4.68-1.63-7.06-2.28-1.31-.36-1.37-1-1-2.08,0.77-2.46.73-2.47,3.37-2,2.05,0.4,2.93,0,3.8-2a21.66,21.66,0,0,0,.84-2.24q1.78-5.47,3.53-10.94c1.37-4.28,1-4.95-3.35-6.38q-15.93-5.19-31.87-10.36a9.27,9.27,0,0,0-1.61-.45,2.08,2.08,0,0,0-1.33,3.84,13.49,13.49,0,0,0,1.78.69L376.11,205c2.35,0.76,4.7,1.55,7.05,2.31,0.63,0.2,1.34.38,1.13,1.23a28.89,28.89,0,0,1-1,3,0.59,0.59,0,0,1-.78.34c-0.54-.15-1.07-0.31-1.6-0.48l-28.23-9.15a16.17,16.17,0,0,0-2.54-.64,1.79,1.79,0,0,0-2.07,1.55,1.72,1.72,0,0,0,1,2.19,10.72,10.72,0,0,0,1.8.65l29.37,9.54a3.35,3.35,0,0,1,1.56.78c-0.2.63-.4,1.3-0.62,2-0.8,2.45-.8,2.46-3.3,1.66l-30.07-9.69a13.83,13.83,0,0,0-2.08-.55,1.69,1.69,0,0,0-2,1.26,1.94,1.94,0,0,0,.81,2.51,8.84,8.84,0,0,0,1.79.68l24.14,7.81c3.39,1.1,3.39,1.11,2,4.52a5,5,0,0,1-.43.69l-14.34-4.63c-5.92-1.91-11.84-3.85-17.77-5.74-1.57-.5-2.51-0.1-3,1.09s0,2.41,1.57,2.93C341.63,221.78,344.67,223,347.87,223.69ZM298.82,597.05c98.32-.26,175.3-79.7,176-174.76C475.49,326,398,245,298.75,245c-97.94,0-175.94,79.25-176,175.91A176,176,0,0,0,298.82,597.05ZM138.08,284.54a30.8,30.8,0,0,1,4.84,12.36c0.92,5.66,0,11.14-1.72,16.53a7.39,7.39,0,0,0-.65,2.78,2,2,0,0,0,1.58,1.88,1.71,1.71,0,0,0,2.23-.85,8.88,8.88,0,0,0,.6-1.3c3.45-9.72,3.69-19.38-.52-29a2.32,2.32,0,0,1-.5-1.76,3.16,3.16,0,0,1,.73,0c9.39,2.45,18.53,1.39,27.52-1.92a19.69,19.69,0,0,0,2.38-1.11,1.68,1.68,0,0,0,.9-2.22,2,2,0,0,0-2.11-1.59,7.22,7.22,0,0,0-2.31.58,46.94,46.94,0,0,1-22.13,2.81A22,22,0,0,1,141.7,280l7.39-8.5c1.84-2.11,3.72-4.19,5.48-6.36a2.08,2.08,0,0,0-1.25-3.48c-1.17-.22-1.73.65-2.35,1.36-3.69,4.21-7.35,8.45-11,12.66a8.61,8.61,0,0,1-2.1,2.11l-9.36-8.15,7.06-8.12c1.57-1.81,3.19-3.59,4.7-5.45,1-1.24.93-2,0-2.93s-2-.84-3.12.29c-0.28.28-.53,0.6-0.79,0.9l-24.42,28c-0.37.42-.74,0.84-1.07,1.29a1.74,1.74,0,0,0,.36,2.55c1.1,1,2,1,3.25-.46,3.28-3.71,6.51-7.48,9.79-11.2,0.45-.51.73-1.27,1.64-1.34,2.63,2.29,5.29,4.59,7.93,6.91,1.26,1.11,1.27,1.15.19,2.4q-5.57,6.44-11.18,12.86a12.24,12.24,0,0,0-1.21,1.49,1.78,1.78,0,0,0,.51,2.54c1.11,0.91,2,.77,3.25-0.67,3.59-4.08,7.14-8.2,10.73-12.29A6.19,6.19,0,0,1,138.08,284.54ZM102.27,480.7c-5.11,3.37-10,6.57-14.81,9.79a9.66,9.66,0,0,0-1.9,1.44,2.3,2.3,0,0,0,1.14,3.8,4.87,4.87,0,0,0,1.9,0c5.61-.83,11.21-1.7,16.81-2.55,1.82-.28,3.64-0.5,5.45-0.82a1.27,1.27,0,0,0,1.31-1.41,1.4,1.4,0,0,0-1.63-1.36c-0.64,0-1.27.13-1.9,0.23-5.44.87-10.87,1.75-16.31,2.6a4.68,4.68,0,0,1-2.41,0A6.64,6.64,0,0,1,92,490.71c4.65-3.11,9.31-6.19,14-9.3a10.68,10.68,0,0,0,1.9-1.44,1.34,1.34,0,0,0-.74-2.35,9.33,9.33,0,0,0-2.15-.07c-6,.19-12,0.41-18,0.58-0.55,0-1.25.34-1.65-.42a7.23,7.23,0,0,1,2.28-1.36c5.08-2.5,10.18-5,15.26-7.46,1.64-.81,2-1.48,1.48-2.49s-1.06-.94-2.71-0.13c-3.94,1.92-7.88,3.87-11.81,5.81l-7.07,3.5c-2.32,1.15-2.9,2-2.48,3.5S81.6,481,84,480.89c1.44,0,2.87-.17,4.31-0.18C92.85,480.68,97.38,480.7,102.27,480.7Zm-3.95,33.36c0.24-1.17,1.13-1.5,1.81-2,4.58-3.22,9.17-6.41,13.76-9.62a11.44,11.44,0,0,0,1.67-1.35,1.25,1.25,0,0,0-.11-1.74A1,1,0,0,0,114,499c-0.48.28-1,.54-1.43,0.86q-8.54,6-17.07,12a6.8,6.8,0,0,0-1.6,1.42A2.34,2.34,0,0,0,95.59,517a7.5,7.5,0,0,0,1.91-.14c2.83-.52,5.64-1.1,8.47-1.63,3.13-.59,6.26-1.15,9.49-1.74a3.79,3.79,0,0,1-1.61,1.94c-3.83,3.52-7.69,7-11.53,10.5a8.87,8.87,0,0,0-1.5,1.54,2.28,2.28,0,0,0,1.88,3.62,6.69,6.69,0,0,0,2.1-.39q9.94-3.09,19.88-6.22A9.69,9.69,0,0,0,126,524a1.2,1.2,0,0,0,.91-1.47,1.46,1.46,0,0,0-1.8-1.18c-0.7.16-1.38,0.39-2.07,0.61l-16.18,5.21a1.92,1.92,0,0,1-2,.09c0.61-.58,1.18-1.13,1.75-1.66l12.73-11.68a11.1,11.1,0,0,0,1.52-1.53,1.39,1.39,0,0,0-1.14-2.36,9,9,0,0,0-2.14.24c-2,.37-3.91.79-5.87,1.17Zm391.56-30.19L510,485.55c1,0.08,2.17.56,2.73-.75s-0.71-1.8-1.46-2.38c-4.61-3.58-9.26-7.1-13.87-10.67a3.66,3.66,0,0,1-1.67-1.63,3.63,3.63,0,0,1,2.4.07l14.7,3.37c0.93,0.21,1.86.46,2.81,0.61a1.35,1.35,0,0,0,1.66-1,1.27,1.27,0,0,0-1-1.66,11.62,11.62,0,0,0-1.61-.45q-10-2.24-20.1-4.46c-2.35-.51-3.4-0.19-4,1.07s-0.14,2.34,1.73,3.74q6.23,4.68,12.48,9.33c0.61,0.46,1.21.93,1.81,1.39a15,15,0,0,1-4.34.07c-4.77-.44-9.54-0.92-14.32-1.32-1.89-.16-2.84.47-3.21,1.81s0.1,2,1.8,3q9.53,5.53,19.09,11c1.44,0.82,2.08.77,2.46-.09,0.49-1.12-.09-1.81-1-2.32-0.42-.23-0.82-0.49-1.24-0.73-4.65-2.65-9.3-5.28-13.94-8A3.59,3.59,0,0,1,489.88,483.88ZM388.67,604.06a17.8,17.8,0,0,0,8.46,13.28A10.77,10.77,0,0,0,412,613.61c1-1.77,1.76-3,4-2.07a1.35,1.35,0,0,0,1.94-.87,1.57,1.57,0,0,0-1.19-2,3.06,3.06,0,0,0-.91-0.28c-1.84-.05-2.16-1.2-2.49-2.78-1.1-5.41-3.83-9.86-8.81-12.5C397.42,589.33,388.68,594.76,388.67,604.06ZM230,626.41a3.88,3.88,0,0,1-.93-2.18c-2-6.41-3.93-12.83-5.88-19.24-0.33-1.07-.54-2.34-2-2.25-1.25.08-1.25,1.28-1.53,2.15q-3.22,10.16-6.42,20.33a8.53,8.53,0,0,0-.4,1.62,1.25,1.25,0,0,0,.93,1.48,1.4,1.4,0,0,0,1.86-.62,13,13,0,0,0,.66-1.79c1.17-3.73,2.3-7.48,3.51-11.2a28,28,0,0,1,1.62-4.69c0.87,0.65.86,1.62,1.11,2.41,2,6.16,3.87,12.34,5.79,18.52,0.36,1.15.58,2.56,2.1,2.52,1.32,0,1.33-1.45,1.62-2.38,2.16-6.77,4.28-13.55,6.41-20.33,0.12-.38.25-0.76,0.35-1.14a1.39,1.39,0,0,0-1.06-1.84,1.3,1.3,0,0,0-1.78.74,16.57,16.57,0,0,0-.55,1.58l-4.62,14.62A3.37,3.37,0,0,1,230,626.41Zm133.07-11.23a5.77,5.77,0,0,1,2.41,1.32q8,5.67,16,11.38c0.91,0.65,1.92,1.54,3,.73s0.32-1.9,0-2.85q-3.63-10.14-7.28-20.27a6.16,6.16,0,0,0-.55-1.32,1.24,1.24,0,0,0-1.65-.54,1.37,1.37,0,0,0-1.11,1.59,13.53,13.53,0,0,0,.58,1.82q2.62,7.32,5.25,14.64c0.17,0.47.62,0.94,0.06,1.54-0.41-.26-0.82-0.5-1.2-0.77l-16.12-11.64c-0.58-.42-1.18-0.82-1.78-1.21a1.56,1.56,0,0,0-2,0,1.43,1.43,0,0,0-.28,1.76c0.47,1.36,1,2.71,1.44,4.06,2.1,5.86,4.19,11.72,6.32,17.56,0.54,1.49,1.23,1.91,2.23,1.53s1.18-1.09.65-2.61c-0.73-2.11-1.51-4.2-2.26-6.3ZM449.27,576c-0.56-.08-0.87-0.12-1.18-0.18-7.06-1.34-14.11-2.7-21.17-4-1.06-.2-2.35-0.57-3,0.78-0.51,1.14.66,1.64,1.22,2.35a2,2,0,0,0,.17.17l14.76,14.76c0.34,0.34.67,0.68,1,1a1.53,1.53,0,1,0,2.15-2.16c-0.33-.35-0.67-0.69-1-1q-4.15-4.16-8.31-8.31c-1.17-1.17-2.31-2.37-3.69-3.79a19.9,19.9,0,0,1,5,.68c5.82,1,11.62,2.1,17.44,3.13,1,0.17,2.17.52,2.76-.72s-0.52-1.72-1.15-2.36q-7.51-7.59-15.06-15.13a14.84,14.84,0,0,0-1.22-1.14,1.3,1.3,0,0,0-1.92.21,1.36,1.36,0,0,0-.18,1.94,11.54,11.54,0,0,0,1.15,1.22q5.25,5.26,10.51,10.53A5.66,5.66,0,0,1,449.27,576Zm38.84-51.73a19.43,19.43,0,0,0,3.11-.35c6.25-1.41,11.21-10.45,5.74-17.36a18,18,0,0,0-12.26-6.8c-4.8-.6-8.65,1.14-11.06,5.49-2.31,4.18-2.22,8.36.79,12.11A18.32,18.32,0,0,0,488.11,524.25ZM341.92,640.48c0.65-.05,1.38,0,2.08-0.17,5.4-1,9.35-4.82,8.23-10.8-0.63-3.37-1.19-6.76-1.78-10.15-0.35-2-.69-3.93-1-5.9a1.35,1.35,0,0,0-1.72-1.22,1.38,1.38,0,0,0-1.23,1.73c0,0.32.07,0.64,0.12,1q0.51,3,1,5.9c0.53,3,1.1,6,1.57,9,0.4,2.6,0,5-2.44,6.55-4.77,3.09-9.74,1.17-11.17-4.28-0.1-.39-0.16-0.78-0.23-1.18q-0.92-5.19-1.84-10.38c-0.19-1.1-.35-2.21-0.55-3.31-0.31-1.74-.89-2.32-2-2.05s-1.33.89-1.07,2.49c0,0.16.08,0.31,0.11,0.47,0.83,4.8,1.81,9.58,2.44,14.41C333,636.89,336.16,640.53,341.92,640.48Zm-51.08.64c-0.06-.33-0.13-0.8-0.24-1.27q-2.82-11-5.66-22a6.34,6.34,0,0,0-.45-1.36,2.06,2.06,0,0,0-3.55-.29,7.76,7.76,0,0,0-.73,1.5l-8.87,20.38c-0.22.51-.45,1-0.62,1.55a1.17,1.17,0,0,0,.44,1.48,1.43,1.43,0,0,0,1.78-.1,4.58,4.58,0,0,0,1-1.35,36,36,0,0,0,1.66-3.71,1.89,1.89,0,0,1,2.36-1.36c1.9,0.23,3.81.34,5.72,0.48,2.55,0.18,2.55.17,3.21,2.56,0.38,1.38.71,2.78,1.16,4.14a1.52,1.52,0,0,0,2,.94C290.76,642.59,290.83,641.93,290.84,641.12Zm-86-43.68a2.11,2.11,0,0,0-1.06-2.55,2.14,2.14,0,0,0-2.78.65c-0.1.12-.23,0.22-0.34,0.34L184.56,612a10.23,10.23,0,0,0-1.1,1.26,1.1,1.1,0,0,0,.12,1.52,1.36,1.36,0,0,0,1.51.43,5.24,5.24,0,0,0,1.75-1.23c1-.94,2-1.86,2.91-2.84a1.38,1.38,0,0,1,1.89-.3c2.05,1.06,4.14,2,6.22,3.06,1.76,0.86,1.74.87,1.49,2.9-0.17,1.34-.28,2.7-0.43,4a1.69,1.69,0,0,0,1.36,2.15c0.86,0.18,1.41-.48,1.64-1.91,0.05-.31,0-0.64.08-1,0.41-3.24.85-6.48,1.25-9.73C203.79,606,204.3,601.66,204.81,597.44ZM310.7,631.73A2.24,2.24,0,0,1,312,633c2.05,2.75,4.08,5.53,6.12,8.29a9.12,9.12,0,0,0,1,1.3,1.35,1.35,0,0,0,1.77,0,1.23,1.23,0,0,0,.44-1.68,8.69,8.69,0,0,0-.91-1.4q-3.33-4.54-6.68-9.07c-1.47-2-1.2-1.68-.13-3.27l5-7.58a11.92,11.92,0,0,0,.87-1.43,1.23,1.23,0,0,0-.38-1.7,1.4,1.4,0,0,0-1.95.24,11.72,11.72,0,0,0-.82,1.18c-1.47,2.19-2.91,4.39-4.4,6.57-0.38.56-.56,1.35-1.5,1.52-1.88-2.54-3.77-5.11-5.67-7.68a16.39,16.39,0,0,0-1.2-1.49,1.09,1.09,0,0,0-1.52-.11,1.29,1.29,0,0,0-.71,1.6,6.14,6.14,0,0,0,.87,1.42c1.78,2.46,3.58,4.9,5.37,7.35,1.34,1.84,1.34,1.84,0,3.84l-6.37,9.57c-0.57.85-1,1.73,0,2.53,0.71,0.58,1.53.27,2.34-.88,1-1.37,1.87-2.79,2.8-4.18Zm170.68-93.19a8.75,8.75,0,0,1-7,8.78c-4.85,1.05-11-2.26-13.37-7.24-2.26-4.7-.84-8.88,3.82-11.2,0.57-.28,1.15-0.55,1.74-0.8,0.78-.34,1.49-0.77,1.2-1.76s-1.07-.82-1.79-0.8a6.25,6.25,0,0,0-2.51.73,11.27,11.27,0,0,0-5,15.5,16.11,16.11,0,0,0,11.94,8.7c7,1.3,13.92-4.71,13.8-11.78a5.09,5.09,0,0,0-.45-2.33,1.27,1.27,0,0,0-2.35.3A12.56,12.56,0,0,0,481.38,538.54Zm-227.31,85c-1.35-4-2.52-7.48-3.71-11-0.63-1.85-1.14-2.3-2.13-2s-1.21,1.17-.59,3.06c0.07,0.23.19,0.44,0.27,0.67,1.17,3.39,2.3,6.8,3.53,10.17a6.22,6.22,0,0,1,.26,3.51c-0.56,2.74-1,5.49-1.57,8.23a1.51,1.51,0,0,0,1.15,2c1.1,0.28,1.61-.4,1.87-1.35,0.06-.23.09-0.47,0.13-0.71,0.48-2.59,1-5.17,1.4-7.77a5.68,5.68,0,0,1,1.37-3c2.48-2.92,4.93-5.88,7.37-8.83,0.41-.49.77-1,1.13-1.54a1,1,0,0,0-.1-1.33,1.35,1.35,0,0,0-1.29-.44,2.6,2.6,0,0,0-1.68,1.24l-4.11,5Zm-85.5-46.91a4.54,4.54,0,0,1,1.92,1.24c1.07,0.83,2.11,1.7,3.19,2.52a1.15,1.15,0,0,0,1.71-.18,1.3,1.3,0,0,0,.13-1.75,3.65,3.65,0,0,0-.67-0.68l-11.09-9.13c-0.74-.61-1.54-1-2.3-0.09s-0.29,1.61.47,2.24c1.17,1,2.31,2,3.51,2.89a1,1,0,0,1,.14,1.75c-0.38.41-.72,0.86-1.07,1.29l-11.87,14.43c-0.66.81-1.09,1.62-.09,2.49s1.38,0.69,2.38-.48c1.56-1.82,3.05-3.69,4.58-5.54Zm65-349a2.19,2.19,0,0,0,0-.56,1.9,1.9,0,0,0-1.82-1.88,2,2,0,0,0-2.22,1.71,10.79,10.79,0,0,0-.17,1.43,60.55,60.55,0,0,1-3.89,16.5,13.9,13.9,0,0,0-.6,1.81,1.8,1.8,0,0,0,1.22,2.29,1.78,1.78,0,0,0,2.47-.78,9.65,9.65,0,0,0,.63-1.29A63.59,63.59,0,0,0,233.54,227.65ZM171.19,606.91c1-.08,1.25-0.91,1.67-1.56q5.92-9.14,11.81-18.29a12,12,0,0,0,.73-1.23c0.41-.85-0.1-1.34-0.73-1.77a1.17,1.17,0,0,0-1.71.16,11,11,0,0,0-1,1.35l-11.54,17.89a10.85,10.85,0,0,0-.74,1.23A1.51,1.51,0,0,0,171.19,606.91Zm243.33-26.54a1.6,1.6,0,0,0-1.33,2.31,7.24,7.24,0,0,0,.84,1.16l13.34,16.9a11.32,11.32,0,0,0,1.11,1.24,1.2,1.2,0,0,0,1.72-.11,1.26,1.26,0,0,0,.52-1.66,9.59,9.59,0,0,0-1-1.37q-2.8-3.58-5.62-7.14l-8-10.13A2.13,2.13,0,0,0,414.53,580.37ZM228.35,223.29c1.4,0.1,2-.34,2.3-1.19a1.8,1.8,0,0,0-.46-2.18,10.55,10.55,0,0,0-1.84-1.08,59.15,59.15,0,0,0-8.75-3.16c-2-.6-2.94-0.26-3.39,1.07s0.09,2.25,2.28,2.92a68.31,68.31,0,0,1,8.72,3.25A4.72,4.72,0,0,0,228.35,223.29Zm-12.21-21.8a1.87,1.87,0,0,0-2.18,1.59c-0.24,1.15.16,1.91,1.51,2.32a95.74,95.74,0,0,1,9.22,3.32,4.1,4.1,0,0,0,1.16.28,1.8,1.8,0,0,0,2.17-1.92,2.09,2.09,0,0,0-1.37-2.06,58.34,58.34,0,0,0-9.92-3.46A3.58,3.58,0,0,0,216.13,201.49ZM306.68,211a3.58,3.58,0,0,0-3.54-3.44,3.54,3.54,0,1,0,.26,7.06A3.39,3.39,0,0,0,306.68,211Zm-119.76,29a3.5,3.5,0,0,0-3.65,3.59,3.44,3.44,0,0,0,3.63,3.35,3.5,3.5,0,0,0,3.52-3.48A3.39,3.39,0,0,0,186.92,239.93Zm-75.76,94.39a3.66,3.66,0,0,0-3.65-3.41,3.73,3.73,0,0,0-3.47,3.63,3.41,3.41,0,0,0,3.51,3.46A3.6,3.6,0,0,0,111.16,334.32ZM418,251.92a3.56,3.56,0,0,0,.24-7.11,3.37,3.37,0,0,0-3.67,3.26A3.63,3.63,0,0,0,418,251.92Zm75.46,94.19a3.35,3.35,0,0,0,3.42-3.52,3.48,3.48,0,1,0-6.94.07A3.44,3.44,0,0,0,493.41,346.12Zm-29,220.54a2,2,0,0,0,2-1.94,2.08,2.08,0,0,0-2.07-2.15,2.05,2.05,0,0,0-2,2.19A2,2,0,0,0,464.44,566.65ZM136.94,578a2,2,0,0,0,2.16-2A2,2,0,1,0,136.94,578Z" transform="translate(-47.61 -169.89)"/><path class="cls-3" d="M298.82,597.05a176,176,0,0,1-176-176.13c0-96.65,78-175.91,176-175.91,99.26,0,176.74,81,176,177.28C474.11,517.35,397.14,596.79,298.82,597.05ZM130.64,420.93a168.13,168.13,0,0,0,168,168.23c92.52,0.09,167.81-74.65,168.29-167.24,0.49-93.62-75.35-169.08-168.14-169.07S130.64,328.09,130.64,420.93Z" transform="translate(-47.61 -169.89)"/><path class="cls-4" d="M347.87,223.69c-3.2-.69-6.24-1.91-9.35-2.91-1.61-.51-2.1-1.6-1.57-2.93s1.4-1.59,3-1.09c5.93,1.89,11.84,3.82,17.77,5.74L372,227.13a5,5,0,0,0,.43-0.69c1.36-3.41,1.36-3.42-2-4.52l-24.14-7.81a8.84,8.84,0,0,1-1.79-.68,1.94,1.94,0,0,1-.81-2.51,1.69,1.69,0,0,1,2-1.26,13.83,13.83,0,0,1,2.08.55l30.07,9.69c2.5,0.8,2.5.8,3.3-1.66,0.22-.67.42-1.34,0.62-2a3.35,3.35,0,0,0-1.56-.78L350.86,206a10.72,10.72,0,0,1-1.8-.65,1.72,1.72,0,0,1-1-2.19,1.79,1.79,0,0,1,2.07-1.55,16.17,16.17,0,0,1,2.54.64l28.23,9.15c0.53,0.17,1.07.33,1.6,0.48a0.59,0.59,0,0,0,.78-0.34,28.89,28.89,0,0,0,1-3c0.21-.85-0.5-1-1.13-1.23-2.35-.76-4.7-1.55-7.05-2.31L352,197.21a13.49,13.49,0,0,1-1.78-.69,2.08,2.08,0,0,1,1.33-3.84,9.27,9.27,0,0,1,1.61.45q15.94,5.17,31.87,10.36c4.38,1.43,4.72,2.09,3.35,6.38q-1.75,5.48-3.53,10.94A21.66,21.66,0,0,1,384,223c-0.87,1.92-1.75,2.36-3.8,2-2.64-.51-2.6-0.5-3.37,2-0.34,1.1-.29,1.72,1,2.08,2.38,0.65,4.71,1.52,7.06,2.28a2.32,2.32,0,0,1,1.89,1.62,2.12,2.12,0,0,1-2.84,2.58c-2.53-.74-5-1.54-7.51-2.45-1.12-.41-1.55-0.17-1.88.93-1,3.21-2,6.39-3.1,9.57-1.61,4.82-3.83,5.89-8.57,4.14a29.2,29.2,0,0,1-7-3.68,7.51,7.51,0,0,1-1.57-1.46,2,2,0,0,1,.12-2.64,1.89,1.89,0,0,1,2.55-.59,23.36,23.36,0,0,1,2,1.27,24.27,24.27,0,0,0,5,2.88c2,0.73,2.8.4,3.47-1.58,1-3,1.92-6.09,3-9.1,0.44-1.24.08-1.64-1.09-2-5.33-1.67-10.62-3.46-15.95-5.14-1.34-.42-2.61-1.21-4.11-1l0,0c0.12-.44-0.29-0.41-0.5-0.56A1,1,0,0,0,347.87,223.69Z" transform="translate(-47.61 -169.89)"/><path class="cls-5" d="M487.14,421.53c-0.42-.94.42-1.45,0.79-2.07,2.49-4.19,5-8.38,7.59-12.49a2,2,0,0,0-.22-2.9c-3.3-3.8-6.5-7.69-9.73-11.56-0.51-.61-1-1.23-1.81-2.24,2.67,0.58,4.92,1.06,7.16,1.57,3.5,0.79,7,1.53,10.48,2.46a1.86,1.86,0,0,0,2.48-1c2.8-4.75,5.67-9.45,8.52-14.17a1.68,1.68,0,0,1,1-1c0.65,3.21.55,6.47,0.94,9.69,0.3,2.46.4,4.94,0.57,7.41,0.13,1.9.12,1.91,1.93,2.35l15.82,3.79a3.54,3.54,0,0,1,1.7.73L523,407c-1.68.73-3.38,1.43-5.06,2.17s-1.79.79-1.64,2.84c0.42,5.5.87,11,1.29,16.49a1.19,1.19,0,0,1-.09,1.1,2.38,2.38,0,0,1-1.37-1.24c-3.49-4.06-7-8.12-10.4-12.25a2,2,0,0,0-2.82-.72c-4.79,2-9.63,3.83-14.45,5.75a3,3,0,0,1-1.37.37Z" transform="translate(-47.61 -169.89)"/><path class="cls-5" d="M112.75,393.68a33.07,33.07,0,0,1-3.78,4.9c-2.15,2.69-4.3,5.37-6.57,8a2.06,2.06,0,0,0-.21,2.92c2.93,4.58,5.76,9.22,8.62,13.84a1.88,1.88,0,0,1,.48,1.12,4.69,4.69,0,0,1-2.45-.7c-4.63-1.74-9.25-3.51-13.84-5.36-1.28-.52-2.06-0.47-3,0.72-3.25,4.16-6.65,8.2-10,12.28a3.49,3.49,0,0,1-1.55,1.21c0.08-1.56.15-3.13,0.24-4.69,0.25-4,.56-8,0.75-12,0.13-2.68.53-2.22-2-3.23Q72.3,409.87,65.19,407c-0.58-.23-1.15-0.48-1.69-0.72,0.12-.81.73-0.64,1.14-0.76l15.93-4.34c1.83-.5,1.83-0.51,1.95-2.34q0.49-7.78,1-15.56a5.19,5.19,0,0,1,.33-2.09,2.14,2.14,0,0,1,1.27,1.39c2.87,4.52,5.75,9,8.55,13.6a1.92,1.92,0,0,0,2.52,1c5.42-1.35,10.87-2.54,16.32-3.8Z" transform="translate(-47.61 -169.89)"/><path class="cls-4" d="M449.18,284.67c-0.07-1-.87-1.48-1.39-2.15-1.3-1.72-2.72-3.36-4-5.1a1.79,1.79,0,0,1,.43-2.73c1-.81,1.75-0.78,2.74.2a16.31,16.31,0,0,1,1.23,1.47q5,6.28,10,12.55c1.07,1.33,1.14,1.37,2.39.29,1-.87,2.73-1.39,2.8-2.7,0.06-1.13-1.36-2.05-2.15-3-3.53-4.45-7.08-8.87-10.62-13.32-0.59-.74-1.3-1.48-0.88-2.57a2.07,2.07,0,0,1,3.62-.66c1.48,1.68,2.82,3.47,4.23,5.22l4.19,5.19c2.24-2.84,1.78-6.79,4.48-9.34-1.08-1.37-2.26-2.78-3.35-4.25-0.94-1.28-.86-2.07.11-3a1.79,1.79,0,0,1,2.74,0,13.82,13.82,0,0,1,1.24,1.46l8.83,11.06c0.49,0.61,1,1.2,1.58,1.87,0.86-.59,1-1.52,1.47-2.21,0.81-1.18,1.46-1.38,2.61-.8a1.84,1.84,0,0,1,1.15,2.53,9,9,0,0,1-1.47,2.73c-1,1.12-.62,1.88.19,2.87,3,3.71,6,7.48,9,11.23a14.47,14.47,0,0,1,1,1.33,1.9,1.9,0,0,1-.52,2.9c-1,.74-1.72.67-2.7-0.39-0.7-.76-1.32-1.61-2-2.41l-1.8-2.24c-2.93,1.91-6.29,1.88-9.44,2.61-0.15.82,0.5,1.15,0.86,1.61,2.17,2.77,4.38,5.51,6.56,8.27a12,12,0,0,1,1,1.36,1.79,1.79,0,0,1-.66,2.5,1.69,1.69,0,0,1-2.39.08,13.15,13.15,0,0,1-1.44-1.6q-5.7-7.11-11.39-14.23c-1.06-1.32-1.1-1.31-2.4-.29-1,.79-2,1.6-3,2.39a3,3,0,0,0,1.09,1.84c3.08,3.89,6.18,7.75,9.28,11.63,0.35,0.44.72,0.86,1,1.32,0.84,1.25.76,2.15-.21,3s-2.05.71-3.1-.49c-0.74-.84-1.41-1.74-2.1-2.62-1.22-1.57-2.43-3.15-3.65-4.73l-0.74-.84-0.73-.54,0,0a48.38,48.38,0,0,0-4.44-5.75l-8.7,6.94a15,15,0,0,1-3.4,2.21,4,4,0,0,1-4.29-.52c-2.78-2.16-4.17-5.2-5.16-8.44a1.81,1.81,0,0,1,1.34-2.44,2,2,0,0,1,2.66.89,16.81,16.81,0,0,1,.79,1.74c0.43,0.94.81,1.91,1.31,2.82,1,1.72,2.18,2.14,3.86.7,2.6-2.24,5.34-4.33,8.05-6.44a1,1,0,0,0,.22-1.73c-1.84-2.21-3.6-4.49-5.4-6.73l0,0a1.08,1.08,0,0,0-.78-0.52ZM468.8,271c-0.91,2.4-1.78,4.36-2.38,6.41-0.38,1.29-2.19,2-1.68,3.39s1.7,2.28,2.59,3.4c0.45,0.56.89,1.13,1.35,1.68,1,1.16,1.72,2.71,3,3.36s3.11-.17,4.66-0.41a17.34,17.34,0,0,0,5.62-1.41Z" transform="translate(-47.61 -169.89)"/><path class="cls-4" d="M138.08,284.54a6.19,6.19,0,0,0-2,1.91c-3.59,4.09-7.14,8.21-10.73,12.29-1.27,1.44-2.14,1.58-3.25.67a1.78,1.78,0,0,1-.51-2.54,12.24,12.24,0,0,1,1.21-1.49q5.59-6.43,11.18-12.86c1.08-1.25,1.07-1.29-.19-2.4-2.64-2.32-5.3-4.62-7.93-6.91-0.91.07-1.2,0.83-1.64,1.34-3.28,3.72-6.5,7.49-9.79,11.2-1.25,1.42-2.15,1.49-3.25.46a1.74,1.74,0,0,1-.36-2.55c0.33-.45.7-0.87,1.07-1.29l24.42-28c0.26-.3.51-0.62,0.79-0.9,1.16-1.14,2.1-1.22,3.12-.29s1,1.69,0,2.93c-1.51,1.86-3.13,3.64-4.7,5.45l-7.06,8.12,9.36,8.15a8.61,8.61,0,0,0,2.1-2.11c3.69-4.21,7.35-8.44,11-12.66,0.62-.71,1.18-1.58,2.35-1.36a2.08,2.08,0,0,1,1.25,3.48c-1.76,2.17-3.65,4.25-5.48,6.36L141.7,280a22,22,0,0,0,7.22,1.79A46.94,46.94,0,0,0,171.06,279a7.22,7.22,0,0,1,2.31-.58,2,2,0,0,1,2.11,1.59,1.68,1.68,0,0,1-.9,2.22,19.69,19.69,0,0,1-2.38,1.11c-9,3.3-18.13,4.37-27.52,1.92a3.16,3.16,0,0,0-.73,0,2.32,2.32,0,0,0,.5,1.76c4.2,9.59,4,19.25.52,29a8.88,8.88,0,0,1-.6,1.3,1.71,1.71,0,0,1-2.23.85,2,2,0,0,1-1.58-1.88,7.39,7.39,0,0,1,.65-2.78c1.73-5.39,2.63-10.87,1.72-16.53A30.8,30.8,0,0,0,138.08,284.54Z" transform="translate(-47.61 -169.89)"/><path class="cls-4" d="M251.4,217.88c-3.58.43-6.92,1.81-10.39,2.67a3.19,3.19,0,0,1-3-.37,4.94,4.94,0,0,0,.27,2.65A57.71,57.71,0,0,1,240,234.43a32.2,32.2,0,0,1-1.51,9.9,6.27,6.27,0,0,1-.43,1.11,1.9,1.9,0,0,1-2.35,1.14,2,2,0,0,1-1.65-2.27,4.22,4.22,0,0,1,.2-1.18c2.14-6.06,1.49-12.1.08-18.18-1.54-6.61-3.49-13.11-5.27-19.66a19.12,19.12,0,0,1-.67-3,3.32,3.32,0,0,1,2.35-4,40.71,40.71,0,0,1,4.12-1.24l23.74-6.6a9.75,9.75,0,0,1,1.62-.38c1.19-.12,1.71.63,2,1.66a1.71,1.71,0,0,1-.91,2.21,10,10,0,0,1-1.59.52l-10.66,3c0.33,1.1.71,2.14,0.94,3.21a1.12,1.12,0,0,0,1.69,1c2-.59,4-1.11,6-1.65a15.25,15.25,0,0,1,1.62-.42c1.4-.22,1.93.12,2.32,1.4s0.13,2.13-1.28,2.6c-2.12.7-4.29,1.25-6.43,1.87-0.75.22-1.5,0.47-2.35,0.73l1.8,6.54,7.87-2.14c1.15-.31,2.3-0.68,3.46-0.93,1.47-.32,2.18.11,2.52,1.42a1.83,1.83,0,0,1-1.45,2.54c-3.44,1-6.91,1.93-10.36,2.94-0.71.21-1.61,0.08-2.06,0.91l0.05,0a1.77,1.77,0,0,0-2,.5ZM245,198.59l-11.57,3.2a0.89,0.89,0,0,0-.62,1.3c1.46,5.16,2.9,10.32,4.52,16.07a3.12,3.12,0,0,1,2.68-2.71c2.7-.7,5.37-1.53,8.07-2.24,0.78-.21,1.1-0.54.87-1.33-0.53-1.82-1.05-3.65-1.62-5.63-2.91.81-5.66,1.61-8.42,2.33-1.45.38-2.05,0-2.49-1.46s-0.16-2.11,1.26-2.58,2.94-.74,4.37-1.23,3.27-.22,3.84-1.48S245.32,200.16,245,198.59Z" transform="translate(-47.61 -169.89)"/><path class="cls-4" d="M253.31,217.45a3.23,3.23,0,0,1,2.23,2.76,5.89,5.89,0,0,0,.88,2.43l7.46-2c0.46-.12.92-0.27,1.39-0.37,1.69-.37,2.24-0.07,2.67,1.45s0.06,2.08-1.62,2.6c-2.29.7-4.61,1.3-6.91,2-2,.57-2,0.59-1.48,2.55s1.07,3.83,1.65,5.89a55.92,55.92,0,0,0,6.26-1.59c1.71-.41,3.38-0.95,5.08-1.4s2.54-.1,2.92,1.38-0.12,2.13-1.74,2.6c-4.29,1.24-8.6,2.42-12.9,3.62l-14.06,3.93a13.74,13.74,0,0,1-1.4.33,1.77,1.77,0,0,1-2.35-1.4c-0.41-1.36-.08-2.2,1.27-2.6,3.44-1,6.91-1.94,10.37-2.91,0.76-.21,1.5-0.46,2.34-0.72a80,80,0,0,0-2.12-7.8c-2,.21-3.85,1-5.76,1.44-1.09.23-2.15,0.61-3.23,0.9-2.1.55-2.91,0.19-3.3-1.45-0.35-1.45.11-2,2.28-2.63,2.45-.71,4.89-1.5,7.37-2.06,1.35-.3,1.55-0.94,1.09-2a6.49,6.49,0,0,1-.28-4.42l0,0.05a1.79,1.79,0,0,0,2-.5Z" transform="translate(-47.61 -169.89)"/><path class="cls-6" d="M102.27,480.7c-4.89,0-9.41,0-13.94,0-1.44,0-2.87.14-4.31,0.18-2.42.07-3.28-.37-3.69-1.81s0.16-2.35,2.48-3.5l7.07-3.5c3.93-1.94,7.87-3.89,11.81-5.81,1.66-.81,2.26-0.75,2.71.13s0.16,1.68-1.48,2.49c-5.08,2.5-10.18,5-15.26,7.46a7.23,7.23,0,0,0-2.28,1.36c0.4,0.76,1.1.44,1.65,0.42,6-.17,12-0.39,18-0.58a9.33,9.33,0,0,1,2.15.07,1.34,1.34,0,0,1,.74,2.35,10.68,10.68,0,0,1-1.9,1.44c-4.65,3.1-9.31,6.19-14,9.3a6.64,6.64,0,0,0-2.14,1.77,4.68,4.68,0,0,0,2.41,0c5.44-.84,10.88-1.73,16.31-2.6,0.63-.1,1.26-0.18,1.9-0.23a1.4,1.4,0,0,1,1.63,1.36,1.27,1.27,0,0,1-1.31,1.41c-1.81.32-3.63,0.54-5.45,0.82-5.6.85-11.2,1.72-16.81,2.55a4.87,4.87,0,0,1-1.9,0,2.3,2.3,0,0,1-1.14-3.8,9.66,9.66,0,0,1,1.9-1.44C92.3,487.27,97.16,484.07,102.27,480.7Z" transform="translate(-47.61 -169.89)"/><path class="cls-6" d="M126.77,559.38l15.72-8.15c0.64-.33,1.26-0.7,1.92-1a1.52,1.52,0,0,1,2.24.66c0.45,1-.21,1.49-1,1.89-1.05.57-2.12,1.1-3.19,1.65l-16,8.22a6.32,6.32,0,0,1-2.2.9,2.34,2.34,0,0,1-2.47-3.42,11.06,11.06,0,0,1,1.1-1.56l10.3-13.25c0.19-.25.34-0.52,0.53-0.82a1.79,1.79,0,0,0-1.8.2l-15.24,5.68c-2.3.85-3.22,0.73-4.06-.51s-0.6-2.28,1.07-4q7.54-7.55,15.12-15.07a5,5,0,0,1,.89-0.79,1.27,1.27,0,0,1,1.74.15,1.32,1.32,0,0,1,.2,1.75,10.44,10.44,0,0,1-1.28,1.41l-11.91,11.83A5.58,5.58,0,0,0,117,547a1.43,1.43,0,0,0,1.6-.12l17-6.44c1.1-.41,2.35-1.21,3.3,0s-0.24,2.22-.93,3.12c-3.93,5.14-8,10.16-11.77,15.44a1.32,1.32,0,0,0-.18.54C126.31,559.76,126.56,559.62,126.77,559.38Z" transform="translate(-47.61 -169.89)"/><path class="cls-7" d="M98.32,514.06l13.49-2.59c2-.38,3.91-0.8,5.87-1.17a9,9,0,0,1,2.14-.24,1.39,1.39,0,0,1,1.14,2.36,11.1,11.1,0,0,1-1.52,1.53L106.7,525.63c-0.58.53-1.14,1.08-1.75,1.66a1.92,1.92,0,0,0,2-.09L123.08,522c0.68-.22,1.37-0.45,2.07-0.61a1.46,1.46,0,0,1,1.8,1.18A1.2,1.2,0,0,1,126,524a9.69,9.69,0,0,1-1.35.47q-9.94,3.12-19.88,6.22a6.69,6.69,0,0,1-2.1.39,2.28,2.28,0,0,1-1.88-3.62,8.87,8.87,0,0,1,1.5-1.54c3.84-3.5,7.7-7,11.53-10.5a3.79,3.79,0,0,0,1.61-1.94c-3.23.59-6.36,1.15-9.49,1.74-2.83.53-5.64,1.1-8.47,1.63a7.5,7.5,0,0,1-1.91.14,2.34,2.34,0,0,1-1.73-3.72,6.8,6.8,0,0,1,1.6-1.42q8.52-6,17.07-12c0.46-.32.95-0.58,1.43-0.86a1,1,0,0,1,1.47.35,1.25,1.25,0,0,1,.11,1.74,11.44,11.44,0,0,1-1.67,1.35c-4.58,3.21-9.18,6.4-13.76,9.62C99.45,512.57,98.56,512.89,98.32,514.06Z" transform="translate(-47.61 -169.89)"/><path class="cls-7" d="M489.88,483.88a3.59,3.59,0,0,0,2,1.71c4.63,2.67,9.29,5.31,13.94,8,0.42,0.24.82,0.5,1.24,0.73,0.95,0.51,1.53,1.2,1,2.32-0.38.86-1,.92-2.46,0.09q-9.56-5.48-19.09-11c-1.69-1-2.13-1.78-1.8-3s1.32-2,3.21-1.81c4.78,0.4,9.55.88,14.32,1.32a15,15,0,0,0,4.34-.07c-0.6-.47-1.2-0.94-1.81-1.39q-6.24-4.67-12.48-9.33c-1.87-1.4-2.32-2.43-1.73-3.74s1.62-1.59,4-1.07q10.05,2.2,20.1,4.46a11.62,11.62,0,0,1,1.61.45,1.27,1.27,0,0,1,1,1.66,1.35,1.35,0,0,1-1.66,1c-0.94-.16-1.87-0.4-2.81-0.61l-14.7-3.37a3.63,3.63,0,0,0-2.4-.07,3.66,3.66,0,0,0,1.67,1.63c4.61,3.57,9.27,7.09,13.87,10.67,0.75,0.58,2,1,1.46,2.38s-1.74.84-2.73,0.75Z" transform="translate(-47.61 -169.89)"/><path class="cls-7" d="M388.67,604.06c0-9.3,8.75-14.73,15.87-11,5,2.63,7.71,7.08,8.81,12.5,0.32,1.58.65,2.73,2.49,2.78a3.06,3.06,0,0,1,.91.28,1.57,1.57,0,0,1,1.19,2,1.35,1.35,0,0,1-1.94.87c-2.26-.94-3,0.3-4,2.07a10.77,10.77,0,0,1-14.85,3.73A17.8,17.8,0,0,1,388.67,604.06Zm21.91,2.52c-1-4.44-3.11-8.08-6.92-10.56a7.26,7.26,0,0,0-8.32,0,7.1,7.1,0,0,0-3.63,6.82,14.63,14.63,0,0,0,7.6,12.27,7.5,7.5,0,0,0,10.9-4.89c-1.06-.3-2.12-0.65-3.2-0.89s-1.3-1-1.09-2a1.35,1.35,0,0,1,1.8-1.08C408.55,606.37,409.33,606.95,410.58,606.58Z" transform="translate(-47.61 -169.89)"/><path class="cls-6" d="M230,626.41a3.37,3.37,0,0,0,.78-1.69l4.62-14.62a16.57,16.57,0,0,1,.55-1.58,1.3,1.3,0,0,1,1.78-.74,1.39,1.39,0,0,1,1.06,1.84c-0.11.38-.23,0.76-0.35,1.14-2.13,6.78-4.24,13.56-6.41,20.33-0.3.93-.31,2.34-1.62,2.38-1.52,0-1.74-1.37-2.1-2.52-1.92-6.18-3.82-12.36-5.79-18.52-0.25-.8-0.24-1.76-1.11-2.41a28,28,0,0,0-1.62,4.69c-1.21,3.72-2.34,7.47-3.51,11.2a13,13,0,0,1-.66,1.79,1.4,1.4,0,0,1-1.86.62,1.25,1.25,0,0,1-.93-1.48,8.53,8.53,0,0,1,.4-1.62q3.2-10.17,6.42-20.33c0.28-.88.28-2.08,1.53-2.15,1.49-.09,1.7,1.17,2,2.25,2,6.42,3.9,12.84,5.88,19.24A3.88,3.88,0,0,0,230,626.41Z" transform="translate(-47.61 -169.89)"/><path class="cls-7" d="M363.06,615.18l3.71,10.41c0.75,2.1,1.53,4.19,2.26,6.3,0.53,1.52.32,2.24-.65,2.61s-1.69,0-2.23-1.53c-2.13-5.85-4.22-11.71-6.32-17.56-0.49-1.35-1-2.7-1.44-4.06a1.43,1.43,0,0,1,.28-1.76,1.56,1.56,0,0,1,2,0c0.6,0.39,1.2.79,1.78,1.21l16.12,11.64c0.38,0.28.79,0.51,1.2,0.77,0.56-.61.11-1.07-0.06-1.54q-2.62-7.32-5.25-14.64a13.53,13.53,0,0,1-.58-1.82,1.37,1.37,0,0,1,1.11-1.59,1.24,1.24,0,0,1,1.65.54,6.16,6.16,0,0,1,.55,1.32q3.65,10.13,7.28,20.27c0.34,1,1.08,2.07,0,2.85s-2.1-.08-3-0.73q-8-5.69-16-11.38A5.77,5.77,0,0,0,363.06,615.18Z" transform="translate(-47.61 -169.89)"/><path class="cls-7" d="M449.27,576a5.66,5.66,0,0,0-1.66-2.07q-5.24-5.28-10.51-10.53a11.54,11.54,0,0,1-1.15-1.22,1.36,1.36,0,0,1,.18-1.94,1.3,1.3,0,0,1,1.92-.21,14.84,14.84,0,0,1,1.22,1.14q7.54,7.56,15.06,15.13c0.63,0.64,1.71,1.19,1.15,2.36s-1.77.89-2.76,0.72c-5.82-1-11.62-2.11-17.44-3.13a19.9,19.9,0,0,0-5-.68c1.38,1.42,2.52,2.62,3.69,3.79q4.15,4.17,8.31,8.31c0.34,0.34.68,0.68,1,1a1.53,1.53,0,1,1-2.15,2.16c-0.35-.33-0.69-0.67-1-1L425.35,575.1a2,2,0,0,1-.17-0.17c-0.56-.71-1.73-1.21-1.22-2.35,0.6-1.35,1.89-1,3-.78,7.06,1.31,14.12,2.67,21.17,4C448.4,575.87,448.71,575.9,449.27,576Z" transform="translate(-47.61 -169.89)"/><path class="cls-7" d="M488.11,524.25a18.32,18.32,0,0,1-13.68-6.9c-3-3.76-3.1-7.93-.79-12.11,2.41-4.35,6.26-6.09,11.06-5.49a18,18,0,0,1,12.26,6.8c5.47,6.91.51,15.95-5.74,17.36A19.43,19.43,0,0,1,488.11,524.25Zm-0.12-3c3.71-.12,6.14-1.54,7.57-4.48a7.26,7.26,0,0,0-.84-8.31,15.71,15.71,0,0,0-11.4-5.83,7.8,7.8,0,0,0-6.77,12.39A15.7,15.7,0,0,0,488,521.28Z" transform="translate(-47.61 -169.89)"/><path class="cls-6" d="M341.92,640.48c-5.76.06-8.91-3.59-9.49-8-0.63-4.83-1.61-9.61-2.44-14.41,0-.16-0.09-0.31-0.11-0.47-0.26-1.6,0-2.24,1.07-2.49s1.71,0.31,2,2.05c0.2,1.1.36,2.21,0.55,3.31q0.91,5.19,1.84,10.38c0.07,0.39.13,0.79,0.23,1.18,1.42,5.45,6.4,7.37,11.17,4.28,2.41-1.56,2.84-3.94,2.44-6.55-0.47-3-1-6-1.57-9q-0.52-2.95-1-5.9c-0.05-.31-0.08-0.63-0.12-1a1.38,1.38,0,0,1,1.23-1.73,1.35,1.35,0,0,1,1.72,1.22c0.36,2,.7,3.93,1,5.9,0.59,3.38,1.15,6.77,1.78,10.15,1.12,6-2.83,9.85-8.23,10.8C343.3,640.43,342.57,640.43,341.92,640.48Z" transform="translate(-47.61 -169.89)"/><path class="cls-7" d="M290.84,641.12c0,0.82-.08,1.47-0.88,1.63a1.52,1.52,0,0,1-2-.94c-0.45-1.36-.78-2.76-1.16-4.14-0.65-2.39-.65-2.38-3.21-2.56-1.91-.14-3.82-0.25-5.72-0.48a1.89,1.89,0,0,0-2.36,1.36,36,36,0,0,1-1.66,3.71,4.58,4.58,0,0,1-1,1.35,1.43,1.43,0,0,1-1.78.1,1.17,1.17,0,0,1-.44-1.48c0.17-.53.4-1,0.62-1.55l8.87-20.38a7.76,7.76,0,0,1,.73-1.5,2.06,2.06,0,0,1,3.55.29,6.34,6.34,0,0,1,.45,1.36q2.84,11,5.66,22C290.71,640.31,290.77,640.79,290.84,641.12ZM282.6,620h-0.38l-5,11.92,8.47,0.63Z" transform="translate(-47.61 -169.89)"/><path class="cls-6" d="M204.81,597.44c-0.51,4.22-1,8.58-1.56,12.93-0.4,3.24-.83,6.48-1.25,9.73,0,0.32,0,.64-0.08,1-0.23,1.43-.78,2.09-1.64,1.91a1.69,1.69,0,0,1-1.36-2.15c0.15-1.35.26-2.7,0.43-4,0.26-2,.27-2-1.49-2.9-2.07-1-4.17-2-6.22-3.06a1.38,1.38,0,0,0-1.89.3c-0.93,1-1.94,1.9-2.91,2.84a5.24,5.24,0,0,1-1.75,1.23,1.36,1.36,0,0,1-1.51-.43,1.1,1.1,0,0,1-.12-1.52,10.23,10.23,0,0,1,1.1-1.26l16.07-16.09c0.11-.11.24-0.22,0.34-0.34a2.14,2.14,0,0,1,2.78-.65A2.11,2.11,0,0,1,204.81,597.44Zm-2.87,1-9.44,9.64a56.7,56.7,0,0,0,7.66,3.62Z" transform="translate(-47.61 -169.89)"/><path class="cls-7" d="M310.7,631.73L306.5,638c-0.94,1.39-1.84,2.8-2.8,4.18-0.8,1.14-1.63,1.45-2.34.88-1-.81-0.58-1.68,0-2.53l6.37-9.57c1.33-2,1.33-2,0-3.84-1.79-2.45-3.59-4.9-5.37-7.35a6.14,6.14,0,0,1-.87-1.42,1.29,1.29,0,0,1,.71-1.6,1.09,1.09,0,0,1,1.52.11,16.39,16.39,0,0,1,1.2,1.49c1.9,2.56,3.79,5.13,5.67,7.68,0.94-.18,1.12-1,1.5-1.52,1.49-2.17,2.94-4.38,4.4-6.57a11.72,11.72,0,0,1,.82-1.18,1.4,1.4,0,0,1,1.95-.24,1.23,1.23,0,0,1,.38,1.7,11.92,11.92,0,0,1-.87,1.43l-5,7.58c-1.07,1.6-1.34,1.29.13,3.27q3.35,4.53,6.68,9.07a8.69,8.69,0,0,1,.91,1.4,1.23,1.23,0,0,1-.44,1.68,1.35,1.35,0,0,1-1.77,0,9.12,9.12,0,0,1-1-1.3c-2-2.76-4.07-5.53-6.12-8.29A2.24,2.24,0,0,0,310.7,631.73Z" transform="translate(-47.61 -169.89)"/><path class="cls-6" d="M481.38,538.54a12.56,12.56,0,0,1,0-1.91,1.27,1.27,0,0,1,2.35-.3,5.09,5.09,0,0,1,.45,2.33c0.12,7.07-6.79,13.08-13.8,11.78a16.11,16.11,0,0,1-11.94-8.7,11.27,11.27,0,0,1,5-15.5,6.25,6.25,0,0,1,2.51-.73c0.72,0,1.54-.08,1.79.8s-0.42,1.42-1.2,1.76c-0.58.25-1.16,0.52-1.74,0.8-4.66,2.32-6.08,6.5-3.82,11.2,2.4,5,8.52,8.29,13.37,7.24A8.75,8.75,0,0,0,481.38,538.54Z" transform="translate(-47.61 -169.89)"/><path class="cls-6" d="M254.07,623.57l3.3-4,4.11-5a2.6,2.6,0,0,1,1.68-1.24,1.35,1.35,0,0,1,1.29.44,1,1,0,0,1,.1,1.33c-0.36.53-.72,1.05-1.13,1.54-2.45,3-4.89,5.91-7.37,8.83a5.68,5.68,0,0,0-1.37,3c-0.38,2.6-.92,5.18-1.4,7.77,0,0.24-.07.48-0.13,0.71-0.26,1-.77,1.63-1.87,1.35a1.51,1.51,0,0,1-1.15-2c0.54-2.74,1-5.49,1.57-8.23a6.22,6.22,0,0,0-.26-3.51c-1.23-3.37-2.36-6.78-3.53-10.17-0.08-.23-0.19-0.44-0.27-0.67-0.62-1.89-.45-2.75.59-3.06s1.49,0.16,2.13,2C251.55,616.09,252.72,619.57,254.07,623.57Z" transform="translate(-47.61 -169.89)"/><path class="cls-7" d="M168.58,576.66l-9.06,11c-1.52,1.85-3,3.72-4.58,5.54-1,1.17-1.53,1.22-2.38.48s-0.57-1.68.09-2.49l11.87-14.43c0.35-.43.69-0.88,1.07-1.29a1,1,0,0,0-.14-1.75c-1.21-.92-2.35-1.92-3.51-2.89-0.75-.62-1.23-1.35-0.47-2.24s1.55-.52,2.3.09l11.09,9.13a3.65,3.65,0,0,1,.67.68,1.3,1.3,0,0,1-.13,1.75,1.15,1.15,0,0,1-1.71.18c-1.08-.82-2.13-1.68-3.19-2.52A4.54,4.54,0,0,0,168.58,576.66Z" transform="translate(-47.61 -169.89)"/><path class="cls-7" d="M233.54,227.65a63.59,63.59,0,0,1-4.37,19.22,9.65,9.65,0,0,1-.63,1.29,1.78,1.78,0,0,1-2.47.78,1.8,1.8,0,0,1-1.22-2.29,13.9,13.9,0,0,1,.6-1.81,60.55,60.55,0,0,0,3.89-16.5,10.79,10.79,0,0,1,.17-1.43,2,2,0,0,1,2.22-1.71,1.9,1.9,0,0,1,1.82,1.88A2.19,2.19,0,0,1,233.54,227.65Z" transform="translate(-47.61 -169.89)"/><path class="cls-6" d="M171.19,606.91a1.51,1.51,0,0,1-1.49-2.22,10.85,10.85,0,0,1,.74-1.23L182,585.57a11,11,0,0,1,1-1.35,1.17,1.17,0,0,1,1.71-.16c0.63,0.44,1.14.93,0.73,1.77a12,12,0,0,1-.73,1.23q-5.9,9.15-11.81,18.29C172.44,606,172.16,606.83,171.19,606.91Z" transform="translate(-47.61 -169.89)"/><path class="cls-6" d="M414.53,580.37a2.13,2.13,0,0,1,1.62,1.18l8,10.13q2.82,3.57,5.62,7.14a9.59,9.59,0,0,1,1,1.37,1.26,1.26,0,0,1-.52,1.66,1.2,1.2,0,0,1-1.72.11,11.32,11.32,0,0,1-1.11-1.24L414,583.83a7.24,7.24,0,0,1-.84-1.16A1.6,1.6,0,0,1,414.53,580.37Z" transform="translate(-47.61 -169.89)"/><path class="cls-1" d="M463.79,302.43l0.74,0.84a0.59,0.59,0,0,0-.49.67,124.18,124.18,0,0,1-1.44,13.54,17.37,17.37,0,0,1-.42,2.1c-0.5,1.77-1.26,2.32-2.67,2-1.24-.3-1.68-1.12-1.41-2.81,0.57-3.54,1-7.09,1.34-10.67,0.09-1.11.17-2.22,0.27-3.34,0.17-2.09.49-2.4,2.62-2.51a0.65,0.65,0,0,0,.77-0.32l0,0C462.95,302.56,463.44,302.4,463.79,302.43Z" transform="translate(-47.61 -169.89)"/><path class="cls-7" d="M449.92,285.14l0,0c0.1,3.49-.06,3.61-3.63,3.95a48.18,48.18,0,0,1-13.35-.65c-1.7-.32-2.2-0.85-2.2-2a1.85,1.85,0,0,1,2-2.11,7.49,7.49,0,0,1,1.42.19,36.75,36.75,0,0,0,12.62.24c0.79-.14,1.57.27,2.33-0.08l0,0C449.11,285.21,449.5,285.19,449.92,285.14Z" transform="translate(-47.61 -169.89)"/><path class="cls-1" d="M347.87,223.69a1,1,0,0,1,1,.4,0.31,0.31,0,0,0-.19.5c0.17,0.2.42,0.45,0.69,0.06l0,0c-0.5.34-.09,0.69,0,1a87.07,87.07,0,0,1,2.49,10.69c0.16,1.11.25,2.26-1.11,2.83a1.89,1.89,0,0,1-2.65-.82,2.24,2.24,0,0,1-.26-0.66c-0.77-3.66-1.58-7.31-2.64-10.9a2,2,0,0,1,1.36-2.48C346.94,224.07,347.67,224.48,347.87,223.69Z" transform="translate(-47.61 -169.89)"/><path class="cls-1" d="M228.35,223.29a4.72,4.72,0,0,1-1.14-.36,68.31,68.31,0,0,0-8.72-3.25c-2.19-.67-2.76-1.49-2.28-2.92s1.35-1.67,3.39-1.07a59.15,59.15,0,0,1,8.75,3.16,10.55,10.55,0,0,1,1.84,1.08,1.8,1.8,0,0,1,.46,2.18C230.37,223,229.75,223.39,228.35,223.29Z" transform="translate(-47.61 -169.89)"/><path class="cls-4" d="M216.13,201.49a3.58,3.58,0,0,1,.58.07,58.34,58.34,0,0,1,9.92,3.46,2.09,2.09,0,0,1,1.37,2.06,1.8,1.8,0,0,1-2.17,1.92,4.1,4.1,0,0,1-1.16-.28,95.74,95.74,0,0,0-9.22-3.32c-1.34-.42-1.74-1.17-1.51-2.32A1.87,1.87,0,0,1,216.13,201.49Z" transform="translate(-47.61 -169.89)"/><path class="cls-7" d="M306.68,211a3.39,3.39,0,0,1-3.28,3.62,3.54,3.54,0,1,1-.26-7.06A3.58,3.58,0,0,1,306.68,211Z" transform="translate(-47.61 -169.89)"/><path class="cls-1" d="M186.92,239.93a3.39,3.39,0,0,1,3.5,3.46,3.5,3.5,0,0,1-3.52,3.48,3.44,3.44,0,0,1-3.63-3.35A3.5,3.5,0,0,1,186.92,239.93Z" transform="translate(-47.61 -169.89)"/><path class="cls-1" d="M111.16,334.32a3.6,3.6,0,0,1-3.61,3.68,3.41,3.41,0,0,1-3.51-3.46,3.73,3.73,0,0,1,3.47-3.63A3.66,3.66,0,0,1,111.16,334.32Z" transform="translate(-47.61 -169.89)"/><path class="cls-1" d="M418,251.92a3.63,3.63,0,0,1-3.43-3.85,3.37,3.37,0,0,1,3.67-3.26A3.56,3.56,0,0,1,418,251.92Z" transform="translate(-47.61 -169.89)"/><path class="cls-4" d="M493.41,346.12a3.44,3.44,0,0,1-3.53-3.45,3.48,3.48,0,1,1,6.94-.07A3.35,3.35,0,0,1,493.41,346.12Z" transform="translate(-47.61 -169.89)"/><path class="cls-6" d="M464.44,566.65a2,2,0,0,1-2.06-1.89,2.05,2.05,0,0,1,2-2.19,2.08,2.08,0,0,1,2.07,2.15A2,2,0,0,1,464.44,566.65Z" transform="translate(-47.61 -169.89)"/><path class="cls-7" d="M136.94,578a2,2,0,1,1,2.16-2A2,2,0,0,1,136.94,578Z" transform="translate(-47.61 -169.89)"/><path class="cls-5" d="M487.11,421.48c-0.29.13,0.15,0.23-.15,0.12l-0.09-.06c0.07-.16.16-0.16,0.27,0Z" transform="translate(-47.61 -169.89)"/><path class="cls-5" d="M112.48,393.41c0.16-.15.39-0.28,0.53-0.1s-0.08.3-.26,0.37Z" transform="translate(-47.61 -169.89)"/><path class="cls-8" d="M130.64,420.93c0-92.84,75.35-168.07,168.16-168.08S467.43,328.3,466.94,421.92c-0.48,92.59-75.77,167.33-168.29,167.24A168.13,168.13,0,0,1,130.64,420.93ZM464.94,421c0-91.73-74.41-166.2-166.17-166.15-92.18,0-165,74.57-166.09,164C131.55,511,206,587,298.45,587.1,390.46,587.16,464.94,512.86,464.94,421Z" transform="translate(-47.61 -169.89)"/><path class="cls-2" d="M349.34,224.66c-0.26.39-.52,0.13-0.69-0.06a0.31,0.31,0,0,1,.19-0.5C349,224.25,349.46,224.22,349.34,224.66Z" transform="translate(-47.61 -169.89)"/><path class="cls-9" d="M468.8,271l13.12,16.42a17.34,17.34,0,0,1-5.62,1.41c-1.55.25-3.29,1.13-4.66,0.41s-2-2.2-3-3.36c-0.46-.55-0.9-1.12-1.35-1.68-0.89-1.12-2.11-2.12-2.59-3.4s1.3-2.1,1.68-3.39C467,275.41,467.89,273.44,468.8,271Z" transform="translate(-47.61 -169.89)"/><path class="cls-2" d="M463.79,302.43c-0.35,0-.84.13-0.73-0.54Z" transform="translate(-47.61 -169.89)"/><path class="cls-2" d="M449.92,285.14c-0.41.05-.8,0.07-0.78-0.52A1.08,1.08,0,0,1,449.92,285.14Z" transform="translate(-47.61 -169.89)"/><path class="cls-9" d="M245,198.59c0.29,1.58,1.39,3.08.87,4.25s-2.51,1-3.84,1.48-2.94.76-4.37,1.23-1.7,1.15-1.26,2.58,1,1.84,2.49,1.46c2.77-.72,5.51-1.52,8.42-2.33,0.57,2,1.09,3.8,1.62,5.63,0.23,0.79-.08,1.12-0.87,1.33-2.7.71-5.37,1.54-8.07,2.24a3.12,3.12,0,0,0-2.68,2.71c-1.61-5.75-3.05-10.92-4.52-16.07a0.89,0.89,0,0,1,.62-1.3Z" transform="translate(-47.61 -169.89)"/><path class="cls-2" d="M253.36,217.44a1.79,1.79,0,0,1-2,.5A1.77,1.77,0,0,1,253.36,217.44Z" transform="translate(-47.61 -169.89)"/><path class="cls-2" d="M126.77,559.38c-0.2.24-.46,0.38-0.71,0.13a1.32,1.32,0,0,1,.18-0.54Z" transform="translate(-47.61 -169.89)"/><path class="cls-10" d="M410.58,606.58c-1.25.37-2-.21-2.87-0.34a1.35,1.35,0,0,0-1.8,1.08c-0.21,1-.07,1.72,1.09,2s2.14,0.59,3.2.89a7.5,7.5,0,0,1-10.9,4.89,14.63,14.63,0,0,1-7.6-12.27,7.1,7.1,0,0,1,3.63-6.82,7.26,7.26,0,0,1,8.32,0C407.46,598.5,409.56,602.14,410.58,606.58Z" transform="translate(-47.61 -169.89)"/><path class="cls-10" d="M488,521.28a15.7,15.7,0,0,1-11.45-6.23,7.8,7.8,0,0,1,6.77-12.39,15.71,15.71,0,0,1,11.4,5.83,7.26,7.26,0,0,1,.84,8.31C494.13,519.75,491.7,521.16,488,521.28Z" transform="translate(-47.61 -169.89)"/><path class="cls-9" d="M282.6,620l3.08,12.54-8.47-.63,5-11.92h0.38Z" transform="translate(-47.61 -169.89)"/><path class="cls-8" d="M201.94,598.46l-1.78,13.26a56.7,56.7,0,0,1-7.66-3.62Z" transform="translate(-47.61 -169.89)"/><path class="cls-11" d="M464.94,421c0,91.81-74.48,166.11-166.49,166.05C206,587,131.55,511,132.67,418.92c1.09-89.46,73.91-164,166.09-164C390.53,254.85,464.94,329.32,464.94,421Zm-69.78,25.9a3.73,3.73,0,0,0-2.11.56c-13.84,5.5-28.09,7-42.55,3.34-27-6.77-44.61-23.77-53.06-50.25a61.49,61.49,0,0,0-7.11-15.39c-16.5-25-46.92-27.73-67.54-12.52a55.4,55.4,0,0,0-13.2,14.45c-10.57,16-13.33,33.63-9.74,52.32,2.33,12.09,7.38,23.08,14,33.41,7.87,12.37,17.59,23.16,28.3,33.09,16.79,15.55,35.47,28.54,55,40.39a2.48,2.48,0,0,0,3-.14c9.62-5.87,19.08-12,28.2-18.61,15.31-11.12,29.7-23.29,42.08-37.68,9-10.42,16.61-21.69,21.83-34.49A61.14,61.14,0,0,0,395.16,446.95Zm-31.93-10.06a39.41,39.41,0,0,0,7.41-.56,47.36,47.36,0,0,0,24.25-11.72,12.93,12.93,0,0,0,4.09-7.42c0.6-3.22,0-6.38-.67-9.51a47.36,47.36,0,0,0-76.63-27.18,16,16,0,0,0-5.8,10.17,20.58,20.58,0,0,0,.44,7.15A47.21,47.21,0,0,0,363.23,436.89Zm-69-112.66a29,29,0,1,0-29.22,28.66A28.86,28.86,0,0,0,294.27,324.23Zm44.48,36.82a18.57,18.57,0,1,0-18.63-18.56A18.59,18.59,0,0,0,338.75,361.06Z" transform="translate(-47.61 -169.89)"/><path class="cls-12" d="M395.16,446.95a61.14,61.14,0,0,1-2.93,8.47c-5.22,12.8-12.87,24.07-21.83,34.49-12.39,14.39-26.77,26.55-42.08,37.68-9.12,6.62-18.58,12.74-28.2,18.61a2.48,2.48,0,0,1-3,.14c-19.52-11.85-38.2-24.83-55-40.39-10.71-9.93-20.44-20.72-28.3-33.09-6.57-10.33-11.63-21.32-14-33.41-3.6-18.7-.83-36.28,9.74-52.32a55.4,55.4,0,0,1,13.2-14.45c20.62-15.21,51-12.46,67.54,12.52a61.49,61.49,0,0,1,7.11,15.39c8.45,26.48,26,43.48,53.06,50.25C365,454.46,379.2,453,393,447.5A3.73,3.73,0,0,1,395.16,446.95Z" transform="translate(-47.61 -169.89)"/><path class="cls-2" d="M363.23,436.89a47.21,47.21,0,0,1-46.9-39.06,20.58,20.58,0,0,1-.44-7.15,16,16,0,0,1,5.8-10.17,47.36,47.36,0,0,1,76.63,27.18c0.64,3.13,1.27,6.28.67,9.51a12.93,12.93,0,0,1-4.09,7.42,47.36,47.36,0,0,1-24.25,11.72A39.41,39.41,0,0,1,363.23,436.89Z" transform="translate(-47.61 -169.89)"/><path class="cls-2" d="M294.27,324.23a29,29,0,1,1-28.83-29.35A28.81,28.81,0,0,1,294.27,324.23Z" transform="translate(-47.61 -169.89)"/><path class="cls-13" d="M338.75,361.06a18.57,18.57,0,1,1,18.65-18.57A18.55,18.55,0,0,1,338.75,361.06Z" transform="translate(-47.61 -169.89)"/></svg>